<?xml version="1.0" encoding="UTF-8" standalone="no"?>
<svg
   xmlns:dc="http://purl.org/dc/elements/1.1/"
   xmlns:cc="http://creativecommons.org/ns#"
   xmlns:rdf="http://www.w3.org/1999/02/22-rdf-syntax-ns#"
   xmlns:svg="http://www.w3.org/2000/svg"
   xmlns="http://www.w3.org/2000/svg"
   xmlns:sodipodi="http://sodipodi.sourceforge.net/DTD/sodipodi-0.dtd"
   xmlns:inkscape="http://www.inkscape.org/namespaces/inkscape"
   viewBox="0 0 677.25 420.00"
   version="1.1"
   id="svg4651"
   sodipodi:docname="ago.svg"
   inkscape:version="0.92.1 r15371"
   inkscape:export-filename="E:\tree-result\tree-result\ppt\revised_age\ago.png"
   inkscape:export-xdpi="300"
   inkscape:export-ydpi="300">
  <metadata
     id="metadata4655">
    <rdf:RDF>
      <cc:Work
         rdf:about="">
        <dc:format>image/svg+xml</dc:format>
        <dc:type
           rdf:resource="http://purl.org/dc/dcmitype/StillImage" />
      </cc:Work>
    </rdf:RDF>
  </metadata>
  <sodipodi:namedview
     pagecolor="#ffffff"
     bordercolor="#666666"
     borderopacity="1"
     objecttolerance="10"
     gridtolerance="10"
     guidetolerance="10"
     inkscape:pageopacity="0"
     inkscape:pageshadow="2"
     inkscape:window-width="1366"
     inkscape:window-height="705"
     id="namedview4653"
     showgrid="false"
     inkscape:zoom="1.61"
     inkscape:cx="235.83277"
     inkscape:cy="139.00374"
     inkscape:window-x="-8"
     inkscape:window-y="-8"
     inkscape:window-maximized="1"
     inkscape:current-layer="svg4651" />
  <defs
     id="defs4487">
    <style
       type="text/css"
       id="style4485"><![CDATA[
    line, polyline, path, rect, circle {
      fill: none;
      stroke: #000000;
      stroke-linecap: round;
      stroke-linejoin: round;
      stroke-miterlimit: 10.00;
    }
  ]]></style>
    <clipPath
       id="cpMzIuNjg1OHw1ODYuODQzfDM4NS43MTl8NS45Nzc1OA==-4">
      <rect
         x="32.689999"
         y="5.98"
         width="554.15997"
         height="379.73999"
         id="rect4493-6" />
    </clipPath>
    <clipPath
       id="cpMzIuNjg1OHw1ODYuODQzfDM4NS43MTl8NS45Nzc1OA==-1">
      <rect
         x="32.689999"
         y="5.98"
         width="554.15997"
         height="379.73999"
         id="rect4493-8" />
    </clipPath>
    <clipPath
       id="cpMzIuNjg1OHw1ODYuODQzfDM4NS43MTl8NS45Nzc1OA==-2">
      <rect
         x="32.689999"
         y="5.98"
         width="554.15997"
         height="379.73999"
         id="rect4493-0" />
    </clipPath>
  </defs>
  <rect
     width="100%"
     height="100%"
     style="stroke: none; fill: #FFFFFF;"
     id="rect4489"
     inkscape:export-xdpi="300"
     inkscape:export-ydpi="300" />
  <rect
     x="0.00"
     y="0.00"
     width="677.25"
     height="420.00"
     style="stroke-width: 1.07; stroke: #FFFFFF; fill: #FFFFFF;"
     id="rect4491"
     inkscape:export-xdpi="300"
     inkscape:export-ydpi="300" />
  <defs
     id="defs4496">
    <clipPath
       id="cpMzIuNjg1OHw1ODYuODQzfDM4NS43MTl8NS45Nzc1OA==">
      <rect
         x="32.69"
         y="5.98"
         width="554.16"
         height="379.74"
         id="rect4493" />
    </clipPath>
  </defs>
  <rect
     x="32.69"
     y="5.98"
     width="554.16"
     height="379.74"
     style="stroke-width: 1.07; stroke: none; fill: #FFFFFF;"
     clip-path="url(#cpMzIuNjg1OHw1ODYuODQzfDM4NS43MTl8NS45Nzc1OA==)"
     id="rect4498"
     inkscape:export-xdpi="300"
     inkscape:export-ydpi="300" />
  <polyline
     points="32.69,322.12 586.84,322.12 "
     style="stroke-width: 1.07; stroke: #FAFAFA; stroke-linecap: butt;"
     clip-path="url(#cpMzIuNjg1OHw1ODYuODQzfDM4NS43MTl8NS45Nzc1OA==)"
     id="polyline4500"
     inkscape:export-xdpi="300"
     inkscape:export-ydpi="300" />
  <polyline
     points="32.69,229.44 586.84,229.44 "
     style="stroke-width: 1.07; stroke: #FAFAFA; stroke-linecap: butt;"
     clip-path="url(#cpMzIuNjg1OHw1ODYuODQzfDM4NS43MTl8NS45Nzc1OA==)"
     id="polyline4502"
     inkscape:export-xdpi="300"
     inkscape:export-ydpi="300" />
  <polyline
     points="32.69,136.75 586.84,136.75 "
     style="stroke-width: 1.07; stroke: #FAFAFA; stroke-linecap: butt;"
     clip-path="url(#cpMzIuNjg1OHw1ODYuODQzfDM4NS43MTl8NS45Nzc1OA==)"
     id="polyline4504"
     inkscape:export-xdpi="300"
     inkscape:export-ydpi="300" />
  <polyline
     points="32.69,44.07 586.84,44.07 "
     style="stroke-width: 1.07; stroke: #FAFAFA; stroke-linecap: butt;"
     clip-path="url(#cpMzIuNjg1OHw1ODYuODQzfDM4NS43MTl8NS45Nzc1OA==)"
     id="polyline4506"
     inkscape:export-xdpi="300"
     inkscape:export-ydpi="300" />
  <polyline
     points="117.74,385.72 117.74,5.98 "
     style="stroke-width: 1.07; stroke: #FAFAFA; stroke-linecap: butt;"
     clip-path="url(#cpMzIuNjg1OHw1ODYuODQzfDM4NS43MTl8NS45Nzc1OA==)"
     id="polyline4508"
     inkscape:export-xdpi="300"
     inkscape:export-ydpi="300" />
  <polyline
     points="261.80,385.72 261.80,5.98 "
     style="stroke-width: 1.07; stroke: #FAFAFA; stroke-linecap: butt;"
     clip-path="url(#cpMzIuNjg1OHw1ODYuODQzfDM4NS43MTl8NS45Nzc1OA==)"
     id="polyline4510"
     inkscape:export-xdpi="300"
     inkscape:export-ydpi="300" />
  <polyline
     points="405.87,385.72 405.87,5.98 "
     style="stroke-width: 1.07; stroke: #FAFAFA; stroke-linecap: butt;"
     clip-path="url(#cpMzIuNjg1OHw1ODYuODQzfDM4NS43MTl8NS45Nzc1OA==)"
     id="polyline4512"
     inkscape:export-xdpi="300"
     inkscape:export-ydpi="300" />
  <polyline
     points="549.93,385.72 549.93,5.98 "
     style="stroke-width: 1.07; stroke: #FAFAFA; stroke-linecap: butt;"
     clip-path="url(#cpMzIuNjg1OHw1ODYuODQzfDM4NS43MTl8NS45Nzc1OA==)"
     id="polyline4514"
     inkscape:export-xdpi="300"
     inkscape:export-ydpi="300" />
  <polyline
     points="32.69,368.46 586.84,368.46 "
     style="stroke-width: 0.43; stroke: #E5E5E5; stroke-linecap: butt;"
     clip-path="url(#cpMzIuNjg1OHw1ODYuODQzfDM4NS43MTl8NS45Nzc1OA==)"
     id="polyline4516"
     inkscape:export-xdpi="300"
     inkscape:export-ydpi="300" />
  <polyline
     points="32.69,275.78 586.84,275.78 "
     style="stroke-width: 0.43; stroke: #E5E5E5; stroke-linecap: butt;"
     clip-path="url(#cpMzIuNjg1OHw1ODYuODQzfDM4NS43MTl8NS45Nzc1OA==)"
     id="polyline4518"
     inkscape:export-xdpi="300"
     inkscape:export-ydpi="300" />
  <polyline
     points="32.69,183.10 586.84,183.10 "
     style="stroke-width: 0.43; stroke: #E5E5E5; stroke-linecap: butt;"
     clip-path="url(#cpMzIuNjg1OHw1ODYuODQzfDM4NS43MTl8NS45Nzc1OA==)"
     id="polyline4520"
     inkscape:export-xdpi="300"
     inkscape:export-ydpi="300" />
  <polyline
     points="32.69,90.41 586.84,90.41 "
     style="stroke-width: 0.43; stroke: #E5E5E5; stroke-linecap: butt;"
     clip-path="url(#cpMzIuNjg1OHw1ODYuODQzfDM4NS43MTl8NS45Nzc1OA==)"
     id="polyline4522"
     inkscape:export-xdpi="300"
     inkscape:export-ydpi="300" />
  <polyline
     points="45.70,385.72 45.70,5.98 "
     style="stroke-width: 0.43; stroke: #E5E5E5; stroke-linecap: butt;"
     clip-path="url(#cpMzIuNjg1OHw1ODYuODQzfDM4NS43MTl8NS45Nzc1OA==)"
     id="polyline4524"
     inkscape:export-xdpi="300"
     inkscape:export-ydpi="300" />
  <polyline
     points="189.77,385.72 189.77,5.98 "
     style="stroke-width: 0.43; stroke: #E5E5E5; stroke-linecap: butt;"
     clip-path="url(#cpMzIuNjg1OHw1ODYuODQzfDM4NS43MTl8NS45Nzc1OA==)"
     id="polyline4526"
     inkscape:export-xdpi="300"
     inkscape:export-ydpi="300" />
  <polyline
     points="333.83,385.72 333.83,5.98 "
     style="stroke-width: 0.43; stroke: #E5E5E5; stroke-linecap: butt;"
     clip-path="url(#cpMzIuNjg1OHw1ODYuODQzfDM4NS43MTl8NS45Nzc1OA==)"
     id="polyline4528"
     inkscape:export-xdpi="300"
     inkscape:export-ydpi="300" />
  <polyline
     points="477.90,385.72 477.90,5.98 "
     style="stroke-width: 0.43; stroke: #E5E5E5; stroke-linecap: butt;"
     clip-path="url(#cpMzIuNjg1OHw1ODYuODQzfDM4NS43MTl8NS45Nzc1OA==)"
     id="polyline4530"
     inkscape:export-xdpi="300"
     inkscape:export-ydpi="300" />
  <polyline
     points="57.87,368.46 58.86,368.46 59.85,368.46 60.83,368.46 61.82,368.46 62.80,368.45 63.79,368.43 64.78,368.40 65.76,368.35 66.75,368.29 67.73,368.24 68.72,368.19 69.71,368.11 70.69,367.95 71.68,367.71 72.66,367.41 73.65,367.09 74.63,366.71 75.62,366.20 76.61,365.48 77.59,364.57 78.58,363.55 79.56,362.44 80.55,361.12 81.54,359.41 82.52,357.19 83.51,354.44 84.49,351.22 85.48,347.56 86.46,343.48 87.45,338.96 88.44,333.87 89.42,328.18 90.41,322.06 91.39,315.85 92.38,309.67 93.37,303.26 94.35,296.28 95.34,288.78 96.32,281.25 97.31,274.24 98.30,268.07 99.28,262.79 100.27,258.26 101.25,254.19 102.24,250.36 103.22,246.76 104.21,243.65 105.20,241.34 106.18,239.91 107.17,239.30 108.15,239.47 109.14,240.55 110.13,242.67 111.11,245.72 112.10,249.31 113.08,252.97 114.07,256.46 115.06,259.62 116.04,262.29 117.03,264.53 118.01,266.81 119.00,269.65 119.98,273.29 120.97,277.51 121.96,281.89 122.94,286.07 123.93,290.02 124.91,293.92 125.90,297.98 126.89,302.34 127.87,307.02 128.86,311.97 129.84,317.00 130.83,321.90 131.81,326.51 132.80,330.77 133.79,334.66 134.77,338.20 135.76,341.51 136.74,344.77 137.73,348.07 138.72,351.25 139.70,354.01 140.69,356.20 141.67,357.93 142.66,359.42 143.65,360.79 144.63,362.06 145.62,363.19 146.60,364.18 147.59,365.08 148.57,365.90 149.56,366.61 150.55,367.16 151.53,367.56 152.52,367.84 153.50,368.03 154.49,368.17 155.48,368.24 156.46,368.25 157.45,368.23 158.43,368.21 159.42,368.22 160.41,368.25 161.39,368.31 162.38,368.37 163.36,368.42 164.35,368.44 165.33,368.45 166.32,368.46 167.31,368.46 168.29,368.46 169.28,368.46 170.26,368.46 171.25,368.46 172.24,368.46 173.22,368.46 174.21,368.46 175.19,368.46 176.18,368.46 177.16,368.46 178.15,368.46 179.14,368.46 180.12,368.46 181.11,368.46 182.09,368.46 183.08,368.46 184.07,368.46 185.05,368.46 186.04,368.46 187.02,368.46 188.01,368.46 189.00,368.46 189.98,368.46 190.97,368.46 191.95,368.46 192.94,368.46 193.92,368.46 194.91,368.46 195.90,368.46 196.88,368.46 197.87,368.46 198.85,368.46 199.84,368.46 200.83,368.46 201.81,368.46 202.80,368.46 203.78,368.46 204.77,368.46 205.76,368.46 206.74,368.46 207.73,368.46 208.71,368.46 209.70,368.46 210.68,368.46 211.67,368.46 212.66,368.46 213.64,368.46 214.63,368.46 215.61,368.46 216.60,368.46 217.59,368.46 218.57,368.46 219.56,368.46 220.54,368.46 221.53,368.46 222.51,368.46 223.50,368.46 224.49,368.46 225.47,368.46 226.46,368.46 227.44,368.46 228.43,368.46 229.42,368.46 230.40,368.46 231.39,368.46 232.37,368.46 233.36,368.46 234.35,368.46 235.33,368.46 236.32,368.46 237.30,368.46 238.29,368.46 239.27,368.46 240.26,368.46 241.25,368.46 242.23,368.46 243.22,368.46 244.20,368.46 245.19,368.46 246.18,368.46 247.16,368.46 248.15,368.46 249.13,368.46 250.12,368.46 251.11,368.46 252.09,368.46 253.08,368.46 254.06,368.46 255.05,368.46 256.03,368.46 257.02,368.46 258.01,368.46 258.99,368.46 259.98,368.46 260.96,368.46 261.95,368.46 262.94,368.46 263.92,368.46 264.91,368.46 265.89,368.46 266.88,368.46 267.86,368.46 268.85,368.46 269.84,368.46 270.82,368.46 271.81,368.46 272.79,368.46 273.78,368.46 274.77,368.46 275.75,368.46 276.74,368.46 277.72,368.46 278.71,368.46 279.70,368.46 280.68,368.46 281.67,368.46 282.65,368.46 283.64,368.46 284.62,368.46 285.61,368.46 286.60,368.46 287.58,368.46 288.57,368.46 289.55,368.46 290.54,368.46 291.53,368.46 292.51,368.46 293.50,368.46 294.48,368.46 295.47,368.46 296.46,368.46 297.44,368.46 298.43,368.46 299.41,368.46 300.40,368.46 301.38,368.46 302.37,368.46 303.36,368.46 304.34,368.46 305.33,368.46 306.31,368.46 307.30,368.46 308.29,368.46 309.27,368.46 310.26,368.46 311.24,368.46 312.23,368.46 313.21,368.46 314.20,368.46 315.19,368.46 316.17,368.46 317.16,368.46 318.14,368.46 319.13,368.46 320.12,368.46 321.10,368.46 322.09,368.46 323.07,368.46 324.06,368.46 325.05,368.46 326.03,368.46 327.02,368.46 328.00,368.46 328.99,368.46 329.97,368.46 330.96,368.46 331.95,368.46 332.93,368.46 333.92,368.46 334.90,368.46 335.89,368.46 336.88,368.46 337.86,368.46 338.85,368.46 339.83,368.46 340.82,368.46 341.81,368.46 342.79,368.46 343.78,368.46 344.76,368.46 345.75,368.46 346.73,368.46 347.72,368.46 348.71,368.46 349.69,368.46 350.68,368.46 351.66,368.46 352.65,368.46 353.64,368.46 354.62,368.46 355.61,368.46 356.59,368.46 357.58,368.46 358.56,368.46 359.55,368.46 360.54,368.46 361.52,368.46 362.51,368.46 363.49,368.46 364.48,368.46 365.47,368.46 366.45,368.46 367.44,368.46 368.42,368.46 369.41,368.46 370.40,368.46 371.38,368.46 372.37,368.46 373.35,368.46 374.34,368.46 375.32,368.46 376.31,368.46 377.30,368.46 378.28,368.46 379.27,368.46 380.25,368.46 381.24,368.46 382.23,368.46 383.21,368.46 384.20,368.46 385.18,368.46 386.17,368.46 387.16,368.46 388.14,368.46 389.13,368.46 390.11,368.46 391.10,368.46 392.08,368.46 393.07,368.46 394.06,368.46 395.04,368.46 396.03,368.46 397.01,368.46 398.00,368.46 398.99,368.46 399.97,368.46 400.96,368.46 401.94,368.46 402.93,368.46 403.91,368.46 404.90,368.46 405.89,368.46 406.87,368.46 407.86,368.46 408.84,368.46 409.83,368.46 410.82,368.46 411.80,368.46 412.79,368.46 413.77,368.46 414.76,368.46 415.75,368.46 416.73,368.46 417.72,368.46 418.70,368.46 419.69,368.46 420.67,368.46 421.66,368.46 422.65,368.46 423.63,368.46 424.62,368.46 425.60,368.46 426.59,368.46 427.58,368.46 428.56,368.46 429.55,368.46 430.53,368.46 431.52,368.46 432.51,368.46 433.49,368.46 434.48,368.46 435.46,368.46 436.45,368.46 437.43,368.46 438.42,368.46 439.41,368.46 440.39,368.46 441.38,368.46 442.36,368.46 443.35,368.46 444.34,368.46 445.32,368.46 446.31,368.46 447.29,368.46 448.28,368.46 449.26,368.46 450.25,368.46 451.24,368.46 452.22,368.46 453.21,368.46 454.19,368.46 455.18,368.46 456.17,368.46 457.15,368.46 458.14,368.46 459.12,368.46 460.11,368.46 461.10,368.46 462.08,368.46 463.07,368.46 464.05,368.46 465.04,368.46 466.02,368.46 467.01,368.46 468.00,368.46 468.98,368.46 469.97,368.46 470.95,368.46 471.94,368.46 472.93,368.46 473.91,368.46 474.90,368.46 475.88,368.46 476.87,368.46 477.86,368.46 478.84,368.46 479.83,368.46 480.81,368.46 481.80,368.46 482.78,368.46 483.77,368.46 484.76,368.46 485.74,368.46 486.73,368.46 487.71,368.46 488.70,368.46 489.69,368.46 490.67,368.46 491.66,368.46 492.64,368.46 493.63,368.46 494.61,368.46 495.60,368.46 496.59,368.46 497.57,368.46 498.56,368.46 499.54,368.46 500.53,368.46 501.52,368.46 502.50,368.46 503.49,368.46 504.47,368.46 505.46,368.46 506.45,368.46 507.43,368.46 508.42,368.46 509.40,368.46 510.39,368.46 511.37,368.46 512.36,368.46 513.35,368.46 514.33,368.46 515.32,368.46 516.30,368.46 517.29,368.46 518.28,368.46 519.26,368.46 520.25,368.46 521.23,368.46 522.22,368.46 523.21,368.46 524.19,368.46 525.18,368.46 526.16,368.46 527.15,368.46 528.13,368.46 529.12,368.46 530.11,368.46 531.09,368.46 532.08,368.46 533.06,368.46 534.05,368.46 535.04,368.46 536.02,368.46 537.01,368.46 537.99,368.46 538.98,368.46 539.96,368.46 540.95,368.46 541.94,368.46 542.92,368.46 543.91,368.46 544.89,368.46 545.88,368.46 546.87,368.46 547.85,368.46 548.84,368.46 549.82,368.46 550.81,368.46 551.80,368.46 552.78,368.46 553.77,368.46 554.75,368.46 555.74,368.46 556.72,368.46 557.71,368.46 558.70,368.46 559.68,368.46 560.67,368.46 561.65,368.46 561.65,368.46 560.67,368.46 559.68,368.46 558.70,368.46 557.71,368.46 556.72,368.46 555.74,368.46 554.75,368.46 553.77,368.46 552.78,368.46 551.80,368.46 550.81,368.46 549.82,368.46 548.84,368.46 547.85,368.46 546.87,368.46 545.88,368.46 544.89,368.46 543.91,368.46 542.92,368.46 541.94,368.46 540.95,368.46 539.96,368.46 538.98,368.46 537.99,368.46 537.01,368.46 536.02,368.46 535.04,368.46 534.05,368.46 533.06,368.46 532.08,368.46 531.09,368.46 530.11,368.46 529.12,368.46 528.13,368.46 527.15,368.46 526.16,368.46 525.18,368.46 524.19,368.46 523.21,368.46 522.22,368.46 521.23,368.46 520.25,368.46 519.26,368.46 518.28,368.46 517.29,368.46 516.30,368.46 515.32,368.46 514.33,368.46 513.35,368.46 512.36,368.46 511.37,368.46 510.39,368.46 509.40,368.46 508.42,368.46 507.43,368.46 506.45,368.46 505.46,368.46 504.47,368.46 503.49,368.46 502.50,368.46 501.52,368.46 500.53,368.46 499.54,368.46 498.56,368.46 497.57,368.46 496.59,368.46 495.60,368.46 494.61,368.46 493.63,368.46 492.64,368.46 491.66,368.46 490.67,368.46 489.69,368.46 488.70,368.46 487.71,368.46 486.73,368.46 485.74,368.46 484.76,368.46 483.77,368.46 482.78,368.46 481.80,368.46 480.81,368.46 479.83,368.46 478.84,368.46 477.86,368.46 476.87,368.46 475.88,368.46 474.90,368.46 473.91,368.46 472.93,368.46 471.94,368.46 470.95,368.46 469.97,368.46 468.98,368.46 468.00,368.46 467.01,368.46 466.02,368.46 465.04,368.46 464.05,368.46 463.07,368.46 462.08,368.46 461.10,368.46 460.11,368.46 459.12,368.46 458.14,368.46 457.15,368.46 456.17,368.46 455.18,368.46 454.19,368.46 453.21,368.46 452.22,368.46 451.24,368.46 450.25,368.46 449.26,368.46 448.28,368.46 447.29,368.46 446.31,368.46 445.32,368.46 444.34,368.46 443.35,368.46 442.36,368.46 441.38,368.46 440.39,368.46 439.41,368.46 438.42,368.46 437.43,368.46 436.45,368.46 435.46,368.46 434.48,368.46 433.49,368.46 432.51,368.46 431.52,368.46 430.53,368.46 429.55,368.46 428.56,368.46 427.58,368.46 426.59,368.46 425.60,368.46 424.62,368.46 423.63,368.46 422.65,368.46 421.66,368.46 420.67,368.46 419.69,368.46 418.70,368.46 417.72,368.46 416.73,368.46 415.75,368.46 414.76,368.46 413.77,368.46 412.79,368.46 411.80,368.46 410.82,368.46 409.83,368.46 408.84,368.46 407.86,368.46 406.87,368.46 405.89,368.46 404.90,368.46 403.91,368.46 402.93,368.46 401.94,368.46 400.96,368.46 399.97,368.46 398.99,368.46 398.00,368.46 397.01,368.46 396.03,368.46 395.04,368.46 394.06,368.46 393.07,368.46 392.08,368.46 391.10,368.46 390.11,368.46 389.13,368.46 388.14,368.46 387.16,368.46 386.17,368.46 385.18,368.46 384.20,368.46 383.21,368.46 382.23,368.46 381.24,368.46 380.25,368.46 379.27,368.46 378.28,368.46 377.30,368.46 376.31,368.46 375.32,368.46 374.34,368.46 373.35,368.46 372.37,368.46 371.38,368.46 370.40,368.46 369.41,368.46 368.42,368.46 367.44,368.46 366.45,368.46 365.47,368.46 364.48,368.46 363.49,368.46 362.51,368.46 361.52,368.46 360.54,368.46 359.55,368.46 358.56,368.46 357.58,368.46 356.59,368.46 355.61,368.46 354.62,368.46 353.64,368.46 352.65,368.46 351.66,368.46 350.68,368.46 349.69,368.46 348.71,368.46 347.72,368.46 346.73,368.46 345.75,368.46 344.76,368.46 343.78,368.46 342.79,368.46 341.81,368.46 340.82,368.46 339.83,368.46 338.85,368.46 337.86,368.46 336.88,368.46 335.89,368.46 334.90,368.46 333.92,368.46 332.93,368.46 331.95,368.46 330.96,368.46 329.97,368.46 328.99,368.46 328.00,368.46 327.02,368.46 326.03,368.46 325.05,368.46 324.06,368.46 323.07,368.46 322.09,368.46 321.10,368.46 320.12,368.46 319.13,368.46 318.14,368.46 317.16,368.46 316.17,368.46 315.19,368.46 314.20,368.46 313.21,368.46 312.23,368.46 311.24,368.46 310.26,368.46 309.27,368.46 308.29,368.46 307.30,368.46 306.31,368.46 305.33,368.46 304.34,368.46 303.36,368.46 302.37,368.46 301.38,368.46 300.40,368.46 299.41,368.46 298.43,368.46 297.44,368.46 296.46,368.46 295.47,368.46 294.48,368.46 293.50,368.46 292.51,368.46 291.53,368.46 290.54,368.46 289.55,368.46 288.57,368.46 287.58,368.46 286.60,368.46 285.61,368.46 284.62,368.46 283.64,368.46 282.65,368.46 281.67,368.46 280.68,368.46 279.70,368.46 278.71,368.46 277.72,368.46 276.74,368.46 275.75,368.46 274.77,368.46 273.78,368.46 272.79,368.46 271.81,368.46 270.82,368.46 269.84,368.46 268.85,368.46 267.86,368.46 266.88,368.46 265.89,368.46 264.91,368.46 263.92,368.46 262.94,368.46 261.95,368.46 260.96,368.46 259.98,368.46 258.99,368.46 258.01,368.46 257.02,368.46 256.03,368.46 255.05,368.46 254.06,368.46 253.08,368.46 252.09,368.46 251.11,368.46 250.12,368.46 249.13,368.46 248.15,368.46 247.16,368.46 246.18,368.46 245.19,368.46 244.20,368.46 243.22,368.46 242.23,368.46 241.25,368.46 240.26,368.46 239.27,368.46 238.29,368.46 237.30,368.46 236.32,368.46 235.33,368.46 234.35,368.46 233.36,368.46 232.37,368.46 231.39,368.46 230.40,368.46 229.42,368.46 228.43,368.46 227.44,368.46 226.46,368.46 225.47,368.46 224.49,368.46 223.50,368.46 222.51,368.46 221.53,368.46 220.54,368.46 219.56,368.46 218.57,368.46 217.59,368.46 216.60,368.46 215.61,368.46 214.63,368.46 213.64,368.46 212.66,368.46 211.67,368.46 210.68,368.46 209.70,368.46 208.71,368.46 207.73,368.46 206.74,368.46 205.76,368.46 204.77,368.46 203.78,368.46 202.80,368.46 201.81,368.46 200.83,368.46 199.84,368.46 198.85,368.46 197.87,368.46 196.88,368.46 195.90,368.46 194.91,368.46 193.92,368.46 192.94,368.46 191.95,368.46 190.97,368.46 189.98,368.46 189.00,368.46 188.01,368.46 187.02,368.46 186.04,368.46 185.05,368.46 184.07,368.46 183.08,368.46 182.09,368.46 181.11,368.46 180.12,368.46 179.14,368.46 178.15,368.46 177.16,368.46 176.18,368.46 175.19,368.46 174.21,368.46 173.22,368.46 172.24,368.46 171.25,368.46 170.26,368.46 169.28,368.46 168.29,368.46 167.31,368.46 166.32,368.46 165.33,368.46 164.35,368.46 163.36,368.46 162.38,368.46 161.39,368.46 160.41,368.46 159.42,368.46 158.43,368.46 157.45,368.46 156.46,368.46 155.48,368.46 154.49,368.46 153.50,368.46 152.52,368.46 151.53,368.46 150.55,368.46 149.56,368.46 148.57,368.46 147.59,368.46 146.60,368.46 145.62,368.46 144.63,368.46 143.65,368.46 142.66,368.46 141.67,368.46 140.69,368.46 139.70,368.46 138.72,368.46 137.73,368.46 136.74,368.46 135.76,368.46 134.77,368.46 133.79,368.46 132.80,368.46 131.81,368.46 130.83,368.46 129.84,368.46 128.86,368.46 127.87,368.46 126.89,368.46 125.90,368.46 124.91,368.46 123.93,368.46 122.94,368.46 121.96,368.46 120.97,368.46 119.98,368.46 119.00,368.46 118.01,368.46 117.03,368.46 116.04,368.46 115.06,368.46 114.07,368.46 113.08,368.46 112.10,368.46 111.11,368.46 110.13,368.46 109.14,368.46 108.15,368.46 107.17,368.46 106.18,368.46 105.20,368.46 104.21,368.46 103.22,368.46 102.24,368.46 101.25,368.46 100.27,368.46 99.28,368.46 98.30,368.46 97.31,368.46 96.32,368.46 95.34,368.46 94.35,368.46 93.37,368.46 92.38,368.46 91.39,368.46 90.41,368.46 89.42,368.46 88.44,368.46 87.45,368.46 86.46,368.46 85.48,368.46 84.49,368.46 83.51,368.46 82.52,368.46 81.54,368.46 80.55,368.46 79.56,368.46 78.58,368.46 77.59,368.46 76.61,368.46 75.62,368.46 74.63,368.46 73.65,368.46 72.66,368.46 71.68,368.46 70.69,368.46 69.71,368.46 68.72,368.46 67.73,368.46 66.75,368.46 65.76,368.46 64.78,368.46 63.79,368.46 62.80,368.46 61.82,368.46 60.83,368.46 59.85,368.46 58.86,368.46 57.87,368.46 "
     style="stroke-width:1.07;fill:#d38d5f;fill-opacity:0.5"
     clip-path="url(#cpMzIuNjg1OHw1ODYuODQzfDM4NS43MTl8NS45Nzc1OA==)"
     id="polyline4532"
     inkscape:export-xdpi="300"
     inkscape:export-ydpi="300" />
  <polyline
     points="57.87,368.46 58.86,368.46 59.85,368.46 60.83,368.46 61.82,368.46 62.80,368.46 63.79,368.46 64.78,368.46 65.76,368.46 66.75,368.46 67.73,368.46 68.72,368.46 69.71,368.46 70.69,368.46 71.68,368.46 72.66,368.46 73.65,368.46 74.63,368.46 75.62,368.46 76.61,368.46 77.59,368.46 78.58,368.46 79.56,368.46 80.55,368.46 81.54,368.46 82.52,368.46 83.51,368.46 84.49,368.46 85.48,368.46 86.46,368.46 87.45,368.45 88.44,368.42 89.42,368.37 90.41,368.27 91.39,368.11 92.38,367.91 93.37,367.69 94.35,367.51 95.34,367.41 96.32,367.38 97.31,367.32 98.30,367.09 99.28,366.56 100.27,365.64 101.25,364.30 102.24,362.59 103.22,360.60 104.21,358.46 105.20,356.28 106.18,354.09 107.17,351.94 108.15,349.86 109.14,347.84 110.13,345.75 111.11,343.27 112.10,340.02 113.08,335.83 114.07,330.97 115.06,325.87 116.04,320.73 117.03,315.36 118.01,309.50 119.00,303.23 119.98,297.02 120.97,291.40 121.96,286.54 122.94,282.21 123.93,278.02 124.91,273.64 125.90,268.97 126.89,264.17 127.87,259.57 128.86,255.52 129.84,252.25 130.83,249.90 131.81,248.49 132.80,247.81 133.79,247.36 134.77,246.75 135.76,246.07 136.74,245.72 137.73,245.98 138.72,246.87 139.70,248.30 140.69,250.24 141.67,252.68 142.66,255.64 143.65,259.16 144.63,263.17 145.62,267.45 146.60,271.76 147.59,276.03 148.57,280.35 149.56,284.83 150.55,289.62 151.53,294.73 152.52,299.98 153.50,305.19 154.49,310.36 155.48,315.68 156.46,321.19 157.45,326.66 158.43,331.75 159.42,336.29 160.41,340.44 161.39,344.50 162.38,348.54 163.36,352.36 164.35,355.60 165.33,358.10 166.32,359.96 167.31,361.38 168.29,362.54 169.28,363.53 170.26,364.42 171.25,365.31 172.24,366.17 173.22,366.93 174.21,367.50 175.19,367.88 176.18,368.12 177.16,368.27 178.15,368.36 179.14,368.42 180.12,368.44 181.11,368.45 182.09,368.46 183.08,368.46 184.07,368.46 185.05,368.46 186.04,368.46 187.02,368.46 188.01,368.46 189.00,368.46 189.98,368.46 190.97,368.46 191.95,368.46 192.94,368.46 193.92,368.46 194.91,368.46 195.90,368.46 196.88,368.46 197.87,368.46 198.85,368.46 199.84,368.46 200.83,368.46 201.81,368.46 202.80,368.46 203.78,368.46 204.77,368.46 205.76,368.46 206.74,368.46 207.73,368.46 208.71,368.46 209.70,368.46 210.68,368.46 211.67,368.46 212.66,368.46 213.64,368.46 214.63,368.46 215.61,368.46 216.60,368.46 217.59,368.46 218.57,368.46 219.56,368.46 220.54,368.46 221.53,368.46 222.51,368.46 223.50,368.46 224.49,368.46 225.47,368.46 226.46,368.46 227.44,368.46 228.43,368.46 229.42,368.46 230.40,368.46 231.39,368.46 232.37,368.46 233.36,368.46 234.35,368.46 235.33,368.46 236.32,368.46 237.30,368.46 238.29,368.46 239.27,368.46 240.26,368.46 241.25,368.46 242.23,368.46 243.22,368.46 244.20,368.46 245.19,368.46 246.18,368.46 247.16,368.46 248.15,368.46 249.13,368.46 250.12,368.46 251.11,368.46 252.09,368.46 253.08,368.46 254.06,368.46 255.05,368.46 256.03,368.46 257.02,368.46 258.01,368.46 258.99,368.46 259.98,368.46 260.96,368.46 261.95,368.46 262.94,368.46 263.92,368.46 264.91,368.46 265.89,368.46 266.88,368.46 267.86,368.46 268.85,368.46 269.84,368.46 270.82,368.46 271.81,368.46 272.79,368.46 273.78,368.46 274.77,368.46 275.75,368.46 276.74,368.46 277.72,368.46 278.71,368.46 279.70,368.46 280.68,368.46 281.67,368.46 282.65,368.46 283.64,368.46 284.62,368.46 285.61,368.46 286.60,368.46 287.58,368.46 288.57,368.46 289.55,368.46 290.54,368.46 291.53,368.46 292.51,368.46 293.50,368.46 294.48,368.46 295.47,368.46 296.46,368.46 297.44,368.46 298.43,368.46 299.41,368.46 300.40,368.46 301.38,368.46 302.37,368.46 303.36,368.46 304.34,368.46 305.33,368.46 306.31,368.46 307.30,368.46 308.29,368.46 309.27,368.46 310.26,368.46 311.24,368.46 312.23,368.46 313.21,368.46 314.20,368.46 315.19,368.46 316.17,368.46 317.16,368.46 318.14,368.46 319.13,368.46 320.12,368.46 321.10,368.46 322.09,368.46 323.07,368.46 324.06,368.46 325.05,368.46 326.03,368.46 327.02,368.46 328.00,368.46 328.99,368.46 329.97,368.46 330.96,368.46 331.95,368.46 332.93,368.46 333.92,368.46 334.90,368.46 335.89,368.46 336.88,368.46 337.86,368.46 338.85,368.46 339.83,368.46 340.82,368.46 341.81,368.46 342.79,368.46 343.78,368.46 344.76,368.46 345.75,368.46 346.73,368.46 347.72,368.46 348.71,368.46 349.69,368.46 350.68,368.46 351.66,368.46 352.65,368.46 353.64,368.46 354.62,368.46 355.61,368.46 356.59,368.46 357.58,368.46 358.56,368.46 359.55,368.46 360.54,368.46 361.52,368.46 362.51,368.46 363.49,368.46 364.48,368.46 365.47,368.46 366.45,368.46 367.44,368.46 368.42,368.46 369.41,368.46 370.40,368.46 371.38,368.46 372.37,368.46 373.35,368.46 374.34,368.46 375.32,368.46 376.31,368.46 377.30,368.46 378.28,368.46 379.27,368.46 380.25,368.46 381.24,368.46 382.23,368.46 383.21,368.46 384.20,368.46 385.18,368.46 386.17,368.46 387.16,368.46 388.14,368.46 389.13,368.46 390.11,368.46 391.10,368.46 392.08,368.46 393.07,368.46 394.06,368.46 395.04,368.46 396.03,368.46 397.01,368.46 398.00,368.46 398.99,368.46 399.97,368.46 400.96,368.46 401.94,368.46 402.93,368.46 403.91,368.46 404.90,368.46 405.89,368.46 406.87,368.46 407.86,368.46 408.84,368.46 409.83,368.46 410.82,368.46 411.80,368.46 412.79,368.46 413.77,368.46 414.76,368.46 415.75,368.46 416.73,368.46 417.72,368.46 418.70,368.46 419.69,368.46 420.67,368.46 421.66,368.46 422.65,368.46 423.63,368.46 424.62,368.46 425.60,368.46 426.59,368.46 427.58,368.46 428.56,368.46 429.55,368.46 430.53,368.46 431.52,368.46 432.51,368.46 433.49,368.46 434.48,368.46 435.46,368.46 436.45,368.46 437.43,368.46 438.42,368.46 439.41,368.46 440.39,368.46 441.38,368.46 442.36,368.46 443.35,368.46 444.34,368.46 445.32,368.46 446.31,368.46 447.29,368.46 448.28,368.46 449.26,368.46 450.25,368.46 451.24,368.46 452.22,368.46 453.21,368.46 454.19,368.46 455.18,368.46 456.17,368.46 457.15,368.46 458.14,368.46 459.12,368.46 460.11,368.46 461.10,368.46 462.08,368.46 463.07,368.46 464.05,368.46 465.04,368.46 466.02,368.46 467.01,368.46 468.00,368.46 468.98,368.46 469.97,368.46 470.95,368.46 471.94,368.46 472.93,368.46 473.91,368.46 474.90,368.46 475.88,368.46 476.87,368.46 477.86,368.46 478.84,368.46 479.83,368.46 480.81,368.46 481.80,368.46 482.78,368.46 483.77,368.46 484.76,368.46 485.74,368.46 486.73,368.46 487.71,368.46 488.70,368.46 489.69,368.46 490.67,368.46 491.66,368.46 492.64,368.46 493.63,368.46 494.61,368.46 495.60,368.46 496.59,368.46 497.57,368.46 498.56,368.46 499.54,368.46 500.53,368.46 501.52,368.46 502.50,368.46 503.49,368.46 504.47,368.46 505.46,368.46 506.45,368.46 507.43,368.46 508.42,368.46 509.40,368.46 510.39,368.46 511.37,368.46 512.36,368.46 513.35,368.46 514.33,368.46 515.32,368.46 516.30,368.46 517.29,368.46 518.28,368.46 519.26,368.46 520.25,368.46 521.23,368.46 522.22,368.46 523.21,368.46 524.19,368.46 525.18,368.46 526.16,368.46 527.15,368.46 528.13,368.46 529.12,368.46 530.11,368.46 531.09,368.46 532.08,368.46 533.06,368.46 534.05,368.46 535.04,368.46 536.02,368.46 537.01,368.46 537.99,368.46 538.98,368.46 539.96,368.46 540.95,368.46 541.94,368.46 542.92,368.46 543.91,368.46 544.89,368.46 545.88,368.46 546.87,368.46 547.85,368.46 548.84,368.46 549.82,368.46 550.81,368.46 551.80,368.46 552.78,368.46 553.77,368.46 554.75,368.46 555.74,368.46 556.72,368.46 557.71,368.46 558.70,368.46 559.68,368.46 560.67,368.46 561.65,368.46 561.65,368.46 560.67,368.46 559.68,368.46 558.70,368.46 557.71,368.46 556.72,368.46 555.74,368.46 554.75,368.46 553.77,368.46 552.78,368.46 551.80,368.46 550.81,368.46 549.82,368.46 548.84,368.46 547.85,368.46 546.87,368.46 545.88,368.46 544.89,368.46 543.91,368.46 542.92,368.46 541.94,368.46 540.95,368.46 539.96,368.46 538.98,368.46 537.99,368.46 537.01,368.46 536.02,368.46 535.04,368.46 534.05,368.46 533.06,368.46 532.08,368.46 531.09,368.46 530.11,368.46 529.12,368.46 528.13,368.46 527.15,368.46 526.16,368.46 525.18,368.46 524.19,368.46 523.21,368.46 522.22,368.46 521.23,368.46 520.25,368.46 519.26,368.46 518.28,368.46 517.29,368.46 516.30,368.46 515.32,368.46 514.33,368.46 513.35,368.46 512.36,368.46 511.37,368.46 510.39,368.46 509.40,368.46 508.42,368.46 507.43,368.46 506.45,368.46 505.46,368.46 504.47,368.46 503.49,368.46 502.50,368.46 501.52,368.46 500.53,368.46 499.54,368.46 498.56,368.46 497.57,368.46 496.59,368.46 495.60,368.46 494.61,368.46 493.63,368.46 492.64,368.46 491.66,368.46 490.67,368.46 489.69,368.46 488.70,368.46 487.71,368.46 486.73,368.46 485.74,368.46 484.76,368.46 483.77,368.46 482.78,368.46 481.80,368.46 480.81,368.46 479.83,368.46 478.84,368.46 477.86,368.46 476.87,368.46 475.88,368.46 474.90,368.46 473.91,368.46 472.93,368.46 471.94,368.46 470.95,368.46 469.97,368.46 468.98,368.46 468.00,368.46 467.01,368.46 466.02,368.46 465.04,368.46 464.05,368.46 463.07,368.46 462.08,368.46 461.10,368.46 460.11,368.46 459.12,368.46 458.14,368.46 457.15,368.46 456.17,368.46 455.18,368.46 454.19,368.46 453.21,368.46 452.22,368.46 451.24,368.46 450.25,368.46 449.26,368.46 448.28,368.46 447.29,368.46 446.31,368.46 445.32,368.46 444.34,368.46 443.35,368.46 442.36,368.46 441.38,368.46 440.39,368.46 439.41,368.46 438.42,368.46 437.43,368.46 436.45,368.46 435.46,368.46 434.48,368.46 433.49,368.46 432.51,368.46 431.52,368.46 430.53,368.46 429.55,368.46 428.56,368.46 427.58,368.46 426.59,368.46 425.60,368.46 424.62,368.46 423.63,368.46 422.65,368.46 421.66,368.46 420.67,368.46 419.69,368.46 418.70,368.46 417.72,368.46 416.73,368.46 415.75,368.46 414.76,368.46 413.77,368.46 412.79,368.46 411.80,368.46 410.82,368.46 409.83,368.46 408.84,368.46 407.86,368.46 406.87,368.46 405.89,368.46 404.90,368.46 403.91,368.46 402.93,368.46 401.94,368.46 400.96,368.46 399.97,368.46 398.99,368.46 398.00,368.46 397.01,368.46 396.03,368.46 395.04,368.46 394.06,368.46 393.07,368.46 392.08,368.46 391.10,368.46 390.11,368.46 389.13,368.46 388.14,368.46 387.16,368.46 386.17,368.46 385.18,368.46 384.20,368.46 383.21,368.46 382.23,368.46 381.24,368.46 380.25,368.46 379.27,368.46 378.28,368.46 377.30,368.46 376.31,368.46 375.32,368.46 374.34,368.46 373.35,368.46 372.37,368.46 371.38,368.46 370.40,368.46 369.41,368.46 368.42,368.46 367.44,368.46 366.45,368.46 365.47,368.46 364.48,368.46 363.49,368.46 362.51,368.46 361.52,368.46 360.54,368.46 359.55,368.46 358.56,368.46 357.58,368.46 356.59,368.46 355.61,368.46 354.62,368.46 353.64,368.46 352.65,368.46 351.66,368.46 350.68,368.46 349.69,368.46 348.71,368.46 347.72,368.46 346.73,368.46 345.75,368.46 344.76,368.46 343.78,368.46 342.79,368.46 341.81,368.46 340.82,368.46 339.83,368.46 338.85,368.46 337.86,368.46 336.88,368.46 335.89,368.46 334.90,368.46 333.92,368.46 332.93,368.46 331.95,368.46 330.96,368.46 329.97,368.46 328.99,368.46 328.00,368.46 327.02,368.46 326.03,368.46 325.05,368.46 324.06,368.46 323.07,368.46 322.09,368.46 321.10,368.46 320.12,368.46 319.13,368.46 318.14,368.46 317.16,368.46 316.17,368.46 315.19,368.46 314.20,368.46 313.21,368.46 312.23,368.46 311.24,368.46 310.26,368.46 309.27,368.46 308.29,368.46 307.30,368.46 306.31,368.46 305.33,368.46 304.34,368.46 303.36,368.46 302.37,368.46 301.38,368.46 300.40,368.46 299.41,368.46 298.43,368.46 297.44,368.46 296.46,368.46 295.47,368.46 294.48,368.46 293.50,368.46 292.51,368.46 291.53,368.46 290.54,368.46 289.55,368.46 288.57,368.46 287.58,368.46 286.60,368.46 285.61,368.46 284.62,368.46 283.64,368.46 282.65,368.46 281.67,368.46 280.68,368.46 279.70,368.46 278.71,368.46 277.72,368.46 276.74,368.46 275.75,368.46 274.77,368.46 273.78,368.46 272.79,368.46 271.81,368.46 270.82,368.46 269.84,368.46 268.85,368.46 267.86,368.46 266.88,368.46 265.89,368.46 264.91,368.46 263.92,368.46 262.94,368.46 261.95,368.46 260.96,368.46 259.98,368.46 258.99,368.46 258.01,368.46 257.02,368.46 256.03,368.46 255.05,368.46 254.06,368.46 253.08,368.46 252.09,368.46 251.11,368.46 250.12,368.46 249.13,368.46 248.15,368.46 247.16,368.46 246.18,368.46 245.19,368.46 244.20,368.46 243.22,368.46 242.23,368.46 241.25,368.46 240.26,368.46 239.27,368.46 238.29,368.46 237.30,368.46 236.32,368.46 235.33,368.46 234.35,368.46 233.36,368.46 232.37,368.46 231.39,368.46 230.40,368.46 229.42,368.46 228.43,368.46 227.44,368.46 226.46,368.46 225.47,368.46 224.49,368.46 223.50,368.46 222.51,368.46 221.53,368.46 220.54,368.46 219.56,368.46 218.57,368.46 217.59,368.46 216.60,368.46 215.61,368.46 214.63,368.46 213.64,368.46 212.66,368.46 211.67,368.46 210.68,368.46 209.70,368.46 208.71,368.46 207.73,368.46 206.74,368.46 205.76,368.46 204.77,368.46 203.78,368.46 202.80,368.46 201.81,368.46 200.83,368.46 199.84,368.46 198.85,368.46 197.87,368.46 196.88,368.46 195.90,368.46 194.91,368.46 193.92,368.46 192.94,368.46 191.95,368.46 190.97,368.46 189.98,368.46 189.00,368.46 188.01,368.46 187.02,368.46 186.04,368.46 185.05,368.46 184.07,368.46 183.08,368.46 182.09,368.46 181.11,368.46 180.12,368.46 179.14,368.46 178.15,368.46 177.16,368.46 176.18,368.46 175.19,368.46 174.21,368.46 173.22,368.46 172.24,368.46 171.25,368.46 170.26,368.46 169.28,368.46 168.29,368.46 167.31,368.46 166.32,368.46 165.33,368.46 164.35,368.46 163.36,368.46 162.38,368.46 161.39,368.46 160.41,368.46 159.42,368.46 158.43,368.46 157.45,368.46 156.46,368.46 155.48,368.46 154.49,368.46 153.50,368.46 152.52,368.46 151.53,368.46 150.55,368.46 149.56,368.46 148.57,368.46 147.59,368.46 146.60,368.46 145.62,368.46 144.63,368.46 143.65,368.46 142.66,368.46 141.67,368.46 140.69,368.46 139.70,368.46 138.72,368.46 137.73,368.46 136.74,368.46 135.76,368.46 134.77,368.46 133.79,368.46 132.80,368.46 131.81,368.46 130.83,368.46 129.84,368.46 128.86,368.46 127.87,368.46 126.89,368.46 125.90,368.46 124.91,368.46 123.93,368.46 122.94,368.46 121.96,368.46 120.97,368.46 119.98,368.46 119.00,368.46 118.01,368.46 117.03,368.46 116.04,368.46 115.06,368.46 114.07,368.46 113.08,368.46 112.10,368.46 111.11,368.46 110.13,368.46 109.14,368.46 108.15,368.46 107.17,368.46 106.18,368.46 105.20,368.46 104.21,368.46 103.22,368.46 102.24,368.46 101.25,368.46 100.27,368.46 99.28,368.46 98.30,368.46 97.31,368.46 96.32,368.46 95.34,368.46 94.35,368.46 93.37,368.46 92.38,368.46 91.39,368.46 90.41,368.46 89.42,368.46 88.44,368.46 87.45,368.46 86.46,368.46 85.48,368.46 84.49,368.46 83.51,368.46 82.52,368.46 81.54,368.46 80.55,368.46 79.56,368.46 78.58,368.46 77.59,368.46 76.61,368.46 75.62,368.46 74.63,368.46 73.65,368.46 72.66,368.46 71.68,368.46 70.69,368.46 69.71,368.46 68.72,368.46 67.73,368.46 66.75,368.46 65.76,368.46 64.78,368.46 63.79,368.46 62.80,368.46 61.82,368.46 60.83,368.46 59.85,368.46 58.86,368.46 57.87,368.46 "
     style="stroke-width:1.07;fill:#ffff00;fill-opacity:0.5"
     clip-path="url(#cpMzIuNjg1OHw1ODYuODQzfDM4NS43MTl8NS45Nzc1OA==)"
     id="polyline4534"
     inkscape:export-xdpi="300"
     inkscape:export-ydpi="300" />
  <polyline
     points="57.87,367.30 58.86,365.24 59.85,361.54 60.83,355.25 61.82,342.67 62.80,320.78 63.79,289.07 64.78,243.82 65.76,193.55 66.75,140.78 67.73,88.23 68.72,54.41 69.71,34.20 70.69,23.24 71.68,38.63 72.66,61.80 73.65,78.71 74.63,99.76 75.62,132.08 76.61,163.97 77.59,194.26 78.58,221.39 79.56,246.62 80.55,270.34 81.54,289.34 82.52,305.52 83.51,320.67 84.49,330.43 85.48,338.32 86.46,345.73 87.45,350.83 88.44,353.80 89.42,356.81 90.41,359.86 91.39,361.40 92.38,362.13 93.37,363.56 94.35,364.91 95.34,365.63 96.32,366.22 97.31,366.97 98.30,367.48 99.28,367.82 100.27,368.03 101.25,367.95 102.24,367.80 103.22,367.83 104.21,367.96 105.20,368.11 106.18,368.29 107.17,368.42 108.15,368.46 109.14,368.46 110.13,368.46 111.11,368.46 112.10,368.46 113.08,368.46 114.07,368.46 115.06,368.46 116.04,368.46 117.03,368.46 118.01,368.46 119.00,368.46 119.98,368.46 120.97,368.46 121.96,368.46 122.94,368.46 123.93,368.46 124.91,368.46 125.90,368.46 126.89,368.46 127.87,368.46 128.86,368.46 129.84,368.46 130.83,368.46 131.81,368.46 132.80,368.46 133.79,368.46 134.77,368.46 135.76,368.46 136.74,368.46 137.73,368.46 138.72,368.46 139.70,368.46 140.69,368.46 141.67,368.46 142.66,368.46 143.65,368.46 144.63,368.46 145.62,368.46 146.60,368.46 147.59,368.46 148.57,368.46 149.56,368.46 150.55,368.46 151.53,368.46 152.52,368.46 153.50,368.46 154.49,368.46 155.48,368.46 156.46,368.46 157.45,368.46 158.43,368.46 159.42,368.46 160.41,368.46 161.39,368.46 162.38,368.46 163.36,368.46 164.35,368.46 165.33,368.46 166.32,368.46 167.31,368.46 168.29,368.46 169.28,368.46 170.26,368.46 171.25,368.46 172.24,368.46 173.22,368.46 174.21,368.46 175.19,368.46 176.18,368.46 177.16,368.46 178.15,368.46 179.14,368.46 180.12,368.46 181.11,368.46 182.09,368.46 183.08,368.46 184.07,368.46 185.05,368.46 186.04,368.46 187.02,368.46 188.01,368.46 189.00,368.46 189.98,368.46 190.97,368.46 191.95,368.46 192.94,368.46 193.92,368.46 194.91,368.46 195.90,368.46 196.88,368.46 197.87,368.46 198.85,368.46 199.84,368.46 200.83,368.46 201.81,368.46 202.80,368.46 203.78,368.46 204.77,368.46 205.76,368.46 206.74,368.46 207.73,368.46 208.71,368.46 209.70,368.46 210.68,368.46 211.67,368.46 212.66,368.46 213.64,368.46 214.63,368.46 215.61,368.46 216.60,368.46 217.59,368.46 218.57,368.46 219.56,368.46 220.54,368.46 221.53,368.46 222.51,368.46 223.50,368.46 224.49,368.46 225.47,368.46 226.46,368.46 227.44,368.46 228.43,368.46 229.42,368.46 230.40,368.46 231.39,368.46 232.37,368.46 233.36,368.46 234.35,368.46 235.33,368.46 236.32,368.46 237.30,368.46 238.29,368.46 239.27,368.46 240.26,368.46 241.25,368.46 242.23,368.46 243.22,368.46 244.20,368.46 245.19,368.46 246.18,368.46 247.16,368.46 248.15,368.46 249.13,368.46 250.12,368.46 251.11,368.46 252.09,368.46 253.08,368.46 254.06,368.46 255.05,368.46 256.03,368.46 257.02,368.46 258.01,368.46 258.99,368.46 259.98,368.46 260.96,368.46 261.95,368.46 262.94,368.46 263.92,368.46 264.91,368.46 265.89,368.46 266.88,368.46 267.86,368.46 268.85,368.46 269.84,368.46 270.82,368.46 271.81,368.46 272.79,368.46 273.78,368.46 274.77,368.46 275.75,368.46 276.74,368.46 277.72,368.46 278.71,368.46 279.70,368.46 280.68,368.46 281.67,368.46 282.65,368.46 283.64,368.46 284.62,368.46 285.61,368.46 286.60,368.46 287.58,368.46 288.57,368.46 289.55,368.46 290.54,368.46 291.53,368.46 292.51,368.46 293.50,368.46 294.48,368.46 295.47,368.46 296.46,368.46 297.44,368.46 298.43,368.46 299.41,368.46 300.40,368.46 301.38,368.46 302.37,368.46 303.36,368.46 304.34,368.46 305.33,368.46 306.31,368.46 307.30,368.46 308.29,368.46 309.27,368.46 310.26,368.46 311.24,368.46 312.23,368.46 313.21,368.46 314.20,368.46 315.19,368.46 316.17,368.46 317.16,368.46 318.14,368.46 319.13,368.46 320.12,368.46 321.10,368.46 322.09,368.46 323.07,368.46 324.06,368.46 325.05,368.46 326.03,368.46 327.02,368.46 328.00,368.46 328.99,368.46 329.97,368.46 330.96,368.46 331.95,368.46 332.93,368.46 333.92,368.46 334.90,368.46 335.89,368.46 336.88,368.46 337.86,368.46 338.85,368.46 339.83,368.46 340.82,368.46 341.81,368.46 342.79,368.46 343.78,368.46 344.76,368.46 345.75,368.46 346.73,368.46 347.72,368.46 348.71,368.46 349.69,368.46 350.68,368.46 351.66,368.46 352.65,368.46 353.64,368.46 354.62,368.46 355.61,368.46 356.59,368.46 357.58,368.46 358.56,368.46 359.55,368.46 360.54,368.46 361.52,368.46 362.51,368.46 363.49,368.46 364.48,368.46 365.47,368.46 366.45,368.46 367.44,368.46 368.42,368.46 369.41,368.46 370.40,368.46 371.38,368.46 372.37,368.46 373.35,368.46 374.34,368.46 375.32,368.46 376.31,368.46 377.30,368.46 378.28,368.46 379.27,368.46 380.25,368.46 381.24,368.46 382.23,368.46 383.21,368.46 384.20,368.46 385.18,368.46 386.17,368.46 387.16,368.46 388.14,368.46 389.13,368.46 390.11,368.46 391.10,368.46 392.08,368.46 393.07,368.46 394.06,368.46 395.04,368.46 396.03,368.46 397.01,368.46 398.00,368.46 398.99,368.46 399.97,368.46 400.96,368.46 401.94,368.46 402.93,368.46 403.91,368.46 404.90,368.46 405.89,368.46 406.87,368.46 407.86,368.46 408.84,368.46 409.83,368.46 410.82,368.46 411.80,368.46 412.79,368.46 413.77,368.46 414.76,368.46 415.75,368.46 416.73,368.46 417.72,368.46 418.70,368.46 419.69,368.46 420.67,368.46 421.66,368.46 422.65,368.46 423.63,368.46 424.62,368.46 425.60,368.46 426.59,368.46 427.58,368.46 428.56,368.46 429.55,368.46 430.53,368.46 431.52,368.46 432.51,368.46 433.49,368.46 434.48,368.46 435.46,368.46 436.45,368.46 437.43,368.46 438.42,368.46 439.41,368.46 440.39,368.46 441.38,368.46 442.36,368.46 443.35,368.46 444.34,368.46 445.32,368.46 446.31,368.46 447.29,368.46 448.28,368.46 449.26,368.46 450.25,368.46 451.24,368.46 452.22,368.46 453.21,368.46 454.19,368.46 455.18,368.46 456.17,368.46 457.15,368.46 458.14,368.46 459.12,368.46 460.11,368.46 461.10,368.46 462.08,368.46 463.07,368.46 464.05,368.46 465.04,368.46 466.02,368.46 467.01,368.46 468.00,368.46 468.98,368.46 469.97,368.46 470.95,368.46 471.94,368.46 472.93,368.46 473.91,368.46 474.90,368.46 475.88,368.46 476.87,368.46 477.86,368.46 478.84,368.46 479.83,368.46 480.81,368.46 481.80,368.46 482.78,368.46 483.77,368.46 484.76,368.46 485.74,368.46 486.73,368.46 487.71,368.46 488.70,368.46 489.69,368.46 490.67,368.46 491.66,368.46 492.64,368.46 493.63,368.46 494.61,368.46 495.60,368.46 496.59,368.46 497.57,368.46 498.56,368.46 499.54,368.46 500.53,368.46 501.52,368.46 502.50,368.46 503.49,368.46 504.47,368.46 505.46,368.46 506.45,368.46 507.43,368.46 508.42,368.46 509.40,368.46 510.39,368.46 511.37,368.46 512.36,368.46 513.35,368.46 514.33,368.46 515.32,368.46 516.30,368.46 517.29,368.46 518.28,368.46 519.26,368.46 520.25,368.46 521.23,368.46 522.22,368.46 523.21,368.46 524.19,368.46 525.18,368.46 526.16,368.46 527.15,368.46 528.13,368.46 529.12,368.46 530.11,368.46 531.09,368.46 532.08,368.46 533.06,368.46 534.05,368.46 535.04,368.46 536.02,368.46 537.01,368.46 537.99,368.46 538.98,368.46 539.96,368.46 540.95,368.46 541.94,368.46 542.92,368.46 543.91,368.46 544.89,368.46 545.88,368.46 546.87,368.46 547.85,368.46 548.84,368.46 549.82,368.46 550.81,368.46 551.80,368.46 552.78,368.46 553.77,368.46 554.75,368.46 555.74,368.46 556.72,368.46 557.71,368.46 558.70,368.46 559.68,368.46 560.67,368.46 561.65,368.46 561.65,368.46 560.67,368.46 559.68,368.46 558.70,368.46 557.71,368.46 556.72,368.46 555.74,368.46 554.75,368.46 553.77,368.46 552.78,368.46 551.80,368.46 550.81,368.46 549.82,368.46 548.84,368.46 547.85,368.46 546.87,368.46 545.88,368.46 544.89,368.46 543.91,368.46 542.92,368.46 541.94,368.46 540.95,368.46 539.96,368.46 538.98,368.46 537.99,368.46 537.01,368.46 536.02,368.46 535.04,368.46 534.05,368.46 533.06,368.46 532.08,368.46 531.09,368.46 530.11,368.46 529.12,368.46 528.13,368.46 527.15,368.46 526.16,368.46 525.18,368.46 524.19,368.46 523.21,368.46 522.22,368.46 521.23,368.46 520.25,368.46 519.26,368.46 518.28,368.46 517.29,368.46 516.30,368.46 515.32,368.46 514.33,368.46 513.35,368.46 512.36,368.46 511.37,368.46 510.39,368.46 509.40,368.46 508.42,368.46 507.43,368.46 506.45,368.46 505.46,368.46 504.47,368.46 503.49,368.46 502.50,368.46 501.52,368.46 500.53,368.46 499.54,368.46 498.56,368.46 497.57,368.46 496.59,368.46 495.60,368.46 494.61,368.46 493.63,368.46 492.64,368.46 491.66,368.46 490.67,368.46 489.69,368.46 488.70,368.46 487.71,368.46 486.73,368.46 485.74,368.46 484.76,368.46 483.77,368.46 482.78,368.46 481.80,368.46 480.81,368.46 479.83,368.46 478.84,368.46 477.86,368.46 476.87,368.46 475.88,368.46 474.90,368.46 473.91,368.46 472.93,368.46 471.94,368.46 470.95,368.46 469.97,368.46 468.98,368.46 468.00,368.46 467.01,368.46 466.02,368.46 465.04,368.46 464.05,368.46 463.07,368.46 462.08,368.46 461.10,368.46 460.11,368.46 459.12,368.46 458.14,368.46 457.15,368.46 456.17,368.46 455.18,368.46 454.19,368.46 453.21,368.46 452.22,368.46 451.24,368.46 450.25,368.46 449.26,368.46 448.28,368.46 447.29,368.46 446.31,368.46 445.32,368.46 444.34,368.46 443.35,368.46 442.36,368.46 441.38,368.46 440.39,368.46 439.41,368.46 438.42,368.46 437.43,368.46 436.45,368.46 435.46,368.46 434.48,368.46 433.49,368.46 432.51,368.46 431.52,368.46 430.53,368.46 429.55,368.46 428.56,368.46 427.58,368.46 426.59,368.46 425.60,368.46 424.62,368.46 423.63,368.46 422.65,368.46 421.66,368.46 420.67,368.46 419.69,368.46 418.70,368.46 417.72,368.46 416.73,368.46 415.75,368.46 414.76,368.46 413.77,368.46 412.79,368.46 411.80,368.46 410.82,368.46 409.83,368.46 408.84,368.46 407.86,368.46 406.87,368.46 405.89,368.46 404.90,368.46 403.91,368.46 402.93,368.46 401.94,368.46 400.96,368.46 399.97,368.46 398.99,368.46 398.00,368.46 397.01,368.46 396.03,368.46 395.04,368.46 394.06,368.46 393.07,368.46 392.08,368.46 391.10,368.46 390.11,368.46 389.13,368.46 388.14,368.46 387.16,368.46 386.17,368.46 385.18,368.46 384.20,368.46 383.21,368.46 382.23,368.46 381.24,368.46 380.25,368.46 379.27,368.46 378.28,368.46 377.30,368.46 376.31,368.46 375.32,368.46 374.34,368.46 373.35,368.46 372.37,368.46 371.38,368.46 370.40,368.46 369.41,368.46 368.42,368.46 367.44,368.46 366.45,368.46 365.47,368.46 364.48,368.46 363.49,368.46 362.51,368.46 361.52,368.46 360.54,368.46 359.55,368.46 358.56,368.46 357.58,368.46 356.59,368.46 355.61,368.46 354.62,368.46 353.64,368.46 352.65,368.46 351.66,368.46 350.68,368.46 349.69,368.46 348.71,368.46 347.72,368.46 346.73,368.46 345.75,368.46 344.76,368.46 343.78,368.46 342.79,368.46 341.81,368.46 340.82,368.46 339.83,368.46 338.85,368.46 337.86,368.46 336.88,368.46 335.89,368.46 334.90,368.46 333.92,368.46 332.93,368.46 331.95,368.46 330.96,368.46 329.97,368.46 328.99,368.46 328.00,368.46 327.02,368.46 326.03,368.46 325.05,368.46 324.06,368.46 323.07,368.46 322.09,368.46 321.10,368.46 320.12,368.46 319.13,368.46 318.14,368.46 317.16,368.46 316.17,368.46 315.19,368.46 314.20,368.46 313.21,368.46 312.23,368.46 311.24,368.46 310.26,368.46 309.27,368.46 308.29,368.46 307.30,368.46 306.31,368.46 305.33,368.46 304.34,368.46 303.36,368.46 302.37,368.46 301.38,368.46 300.40,368.46 299.41,368.46 298.43,368.46 297.44,368.46 296.46,368.46 295.47,368.46 294.48,368.46 293.50,368.46 292.51,368.46 291.53,368.46 290.54,368.46 289.55,368.46 288.57,368.46 287.58,368.46 286.60,368.46 285.61,368.46 284.62,368.46 283.64,368.46 282.65,368.46 281.67,368.46 280.68,368.46 279.70,368.46 278.71,368.46 277.72,368.46 276.74,368.46 275.75,368.46 274.77,368.46 273.78,368.46 272.79,368.46 271.81,368.46 270.82,368.46 269.84,368.46 268.85,368.46 267.86,368.46 266.88,368.46 265.89,368.46 264.91,368.46 263.92,368.46 262.94,368.46 261.95,368.46 260.96,368.46 259.98,368.46 258.99,368.46 258.01,368.46 257.02,368.46 256.03,368.46 255.05,368.46 254.06,368.46 253.08,368.46 252.09,368.46 251.11,368.46 250.12,368.46 249.13,368.46 248.15,368.46 247.16,368.46 246.18,368.46 245.19,368.46 244.20,368.46 243.22,368.46 242.23,368.46 241.25,368.46 240.26,368.46 239.27,368.46 238.29,368.46 237.30,368.46 236.32,368.46 235.33,368.46 234.35,368.46 233.36,368.46 232.37,368.46 231.39,368.46 230.40,368.46 229.42,368.46 228.43,368.46 227.44,368.46 226.46,368.46 225.47,368.46 224.49,368.46 223.50,368.46 222.51,368.46 221.53,368.46 220.54,368.46 219.56,368.46 218.57,368.46 217.59,368.46 216.60,368.46 215.61,368.46 214.63,368.46 213.64,368.46 212.66,368.46 211.67,368.46 210.68,368.46 209.70,368.46 208.71,368.46 207.73,368.46 206.74,368.46 205.76,368.46 204.77,368.46 203.78,368.46 202.80,368.46 201.81,368.46 200.83,368.46 199.84,368.46 198.85,368.46 197.87,368.46 196.88,368.46 195.90,368.46 194.91,368.46 193.92,368.46 192.94,368.46 191.95,368.46 190.97,368.46 189.98,368.46 189.00,368.46 188.01,368.46 187.02,368.46 186.04,368.46 185.05,368.46 184.07,368.46 183.08,368.46 182.09,368.46 181.11,368.46 180.12,368.46 179.14,368.46 178.15,368.46 177.16,368.46 176.18,368.46 175.19,368.46 174.21,368.46 173.22,368.46 172.24,368.46 171.25,368.46 170.26,368.46 169.28,368.46 168.29,368.46 167.31,368.46 166.32,368.46 165.33,368.46 164.35,368.46 163.36,368.46 162.38,368.46 161.39,368.46 160.41,368.46 159.42,368.46 158.43,368.46 157.45,368.46 156.46,368.46 155.48,368.46 154.49,368.46 153.50,368.46 152.52,368.46 151.53,368.46 150.55,368.46 149.56,368.46 148.57,368.46 147.59,368.46 146.60,368.46 145.62,368.46 144.63,368.46 143.65,368.46 142.66,368.46 141.67,368.46 140.69,368.46 139.70,368.46 138.72,368.46 137.73,368.46 136.74,368.46 135.76,368.46 134.77,368.46 133.79,368.46 132.80,368.46 131.81,368.46 130.83,368.46 129.84,368.46 128.86,368.46 127.87,368.46 126.89,368.46 125.90,368.46 124.91,368.46 123.93,368.46 122.94,368.46 121.96,368.46 120.97,368.46 119.98,368.46 119.00,368.46 118.01,368.46 117.03,368.46 116.04,368.46 115.06,368.46 114.07,368.46 113.08,368.46 112.10,368.46 111.11,368.46 110.13,368.46 109.14,368.46 108.15,368.46 107.17,368.46 106.18,368.46 105.20,368.46 104.21,368.46 103.22,368.46 102.24,368.46 101.25,368.46 100.27,368.46 99.28,368.46 98.30,368.46 97.31,368.46 96.32,368.46 95.34,368.46 94.35,368.46 93.37,368.46 92.38,368.46 91.39,368.46 90.41,368.46 89.42,368.46 88.44,368.46 87.45,368.46 86.46,368.46 85.48,368.46 84.49,368.46 83.51,368.46 82.52,368.46 81.54,368.46 80.55,368.46 79.56,368.46 78.58,368.46 77.59,368.46 76.61,368.46 75.62,368.46 74.63,368.46 73.65,368.46 72.66,368.46 71.68,368.46 70.69,368.46 69.71,368.46 68.72,368.46 67.73,368.46 66.75,368.46 65.76,368.46 64.78,368.46 63.79,368.46 62.80,368.46 61.82,368.46 60.83,368.46 59.85,368.46 58.86,368.46 57.87,368.46 "
     style="stroke-width:1.07;fill:#ff00ff;fill-opacity:0.5"
     clip-path="url(#cpMzIuNjg1OHw1ODYuODQzfDM4NS43MTl8NS45Nzc1OA==)"
     id="polyline4536"
     inkscape:export-xdpi="300"
     inkscape:export-ydpi="300" />
  <polyline
     points="57.87,368.46 58.86,368.46 59.85,368.46 60.83,368.46 61.82,368.46 62.80,368.46 63.79,368.46 64.78,368.46 65.76,368.46 66.75,368.46 67.73,368.46 68.72,368.46 69.71,368.46 70.69,368.46 71.68,368.46 72.66,368.46 73.65,368.46 74.63,368.46 75.62,368.46 76.61,368.46 77.59,368.46 78.58,368.46 79.56,368.46 80.55,368.46 81.54,368.46 82.52,368.46 83.51,368.46 84.49,368.46 85.48,368.46 86.46,368.46 87.45,368.46 88.44,368.46 89.42,368.46 90.41,368.46 91.39,368.46 92.38,368.46 93.37,368.46 94.35,368.46 95.34,368.46 96.32,368.46 97.31,368.46 98.30,368.46 99.28,368.46 100.27,368.46 101.25,368.46 102.24,368.46 103.22,368.46 104.21,368.46 105.20,368.46 106.18,368.46 107.17,368.46 108.15,368.46 109.14,368.46 110.13,368.46 111.11,368.46 112.10,368.46 113.08,368.46 114.07,368.46 115.06,368.46 116.04,368.46 117.03,368.46 118.01,368.46 119.00,368.46 119.98,368.46 120.97,368.46 121.96,368.46 122.94,368.46 123.93,368.46 124.91,368.46 125.90,368.46 126.89,368.46 127.87,368.46 128.86,368.46 129.84,368.46 130.83,368.46 131.81,368.46 132.80,368.46 133.79,368.46 134.77,368.46 135.76,368.46 136.74,368.46 137.73,368.46 138.72,368.46 139.70,368.46 140.69,368.46 141.67,368.46 142.66,368.46 143.65,368.46 144.63,368.46 145.62,368.46 146.60,368.46 147.59,368.46 148.57,368.46 149.56,368.46 150.55,368.46 151.53,368.46 152.52,368.46 153.50,368.46 154.49,368.46 155.48,368.46 156.46,368.46 157.45,368.46 158.43,368.46 159.42,368.46 160.41,368.46 161.39,368.46 162.38,368.46 163.36,368.46 164.35,368.46 165.33,368.46 166.32,368.46 167.31,368.46 168.29,368.46 169.28,368.46 170.26,368.46 171.25,368.46 172.24,368.46 173.22,368.46 174.21,368.46 175.19,368.46 176.18,368.46 177.16,368.46 178.15,368.46 179.14,368.46 180.12,368.46 181.11,368.46 182.09,368.46 183.08,368.46 184.07,368.46 185.05,368.46 186.04,368.46 187.02,368.46 188.01,368.46 189.00,368.46 189.98,368.46 190.97,368.46 191.95,368.46 192.94,368.46 193.92,368.46 194.91,368.46 195.90,368.46 196.88,368.46 197.87,368.46 198.85,368.46 199.84,368.46 200.83,368.46 201.81,368.46 202.80,368.46 203.78,368.46 204.77,368.46 205.76,368.46 206.74,368.46 207.73,368.46 208.71,368.46 209.70,368.46 210.68,368.46 211.67,368.46 212.66,368.46 213.64,368.46 214.63,368.46 215.61,368.46 216.60,368.46 217.59,368.46 218.57,368.46 219.56,368.46 220.54,368.46 221.53,368.46 222.51,368.46 223.50,368.46 224.49,368.46 225.47,368.46 226.46,368.46 227.44,368.46 228.43,368.46 229.42,368.46 230.40,368.46 231.39,368.46 232.37,368.46 233.36,368.46 234.35,368.46 235.33,368.46 236.32,368.46 237.30,368.46 238.29,368.46 239.27,368.46 240.26,368.45 241.25,368.45 242.23,368.45 243.22,368.44 244.20,368.43 245.19,368.42 246.18,368.41 247.16,368.39 248.15,368.36 249.13,368.33 250.12,368.30 251.11,368.25 252.09,368.20 253.08,368.14 254.06,368.07 255.05,368.00 256.03,367.92 257.02,367.82 258.01,367.72 258.99,367.60 259.98,367.47 260.96,367.34 261.95,367.18 262.94,367.02 263.92,366.86 264.91,366.68 265.89,366.50 266.88,366.32 267.86,366.14 268.85,365.96 269.84,365.79 270.82,365.61 271.81,365.44 272.79,365.26 273.78,365.08 274.77,364.89 275.75,364.69 276.74,364.47 277.72,364.22 278.71,363.95 279.70,363.65 280.68,363.31 281.67,362.94 282.65,362.53 283.64,362.09 284.62,361.62 285.61,361.12 286.60,360.59 287.58,360.05 288.57,359.48 289.55,358.89 290.54,358.27 291.53,357.63 292.51,356.96 293.50,356.26 294.48,355.54 295.47,354.78 296.46,354.01 297.44,353.21 298.43,352.40 299.41,351.59 300.40,350.76 301.38,349.93 302.37,349.11 303.36,348.28 304.34,347.45 305.33,346.63 306.31,345.80 307.30,344.98 308.29,344.15 309.27,343.31 310.26,342.47 311.24,341.61 312.23,340.73 313.21,339.83 314.20,338.91 315.19,337.97 316.17,337.02 317.16,336.06 318.14,335.10 319.13,334.16 320.12,333.24 321.10,332.36 322.09,331.53 323.07,330.76 324.06,330.05 325.05,329.41 326.03,328.83 327.02,328.31 328.00,327.83 328.99,327.40 329.97,327.00 330.96,326.62 331.95,326.25 332.93,325.88 333.92,325.51 334.90,325.14 335.89,324.76 336.88,324.38 337.86,324.01 338.85,323.64 339.83,323.29 340.82,322.97 341.81,322.66 342.79,322.40 343.78,322.17 344.76,322.00 345.75,321.87 346.73,321.82 347.72,321.82 348.71,321.89 349.69,322.02 350.68,322.21 351.66,322.44 352.65,322.72 353.64,323.02 354.62,323.34 355.61,323.66 356.59,323.98 357.58,324.29 358.56,324.58 359.55,324.85 360.54,325.10 361.52,325.33 362.51,325.56 363.49,325.78 364.48,326.01 365.47,326.25 366.45,326.51 367.44,326.80 368.42,327.11 369.41,327.46 370.40,327.84 371.38,328.25 372.37,328.70 373.35,329.18 374.34,329.69 375.32,330.25 376.31,330.85 377.30,331.48 378.28,332.15 379.27,332.86 380.25,333.60 381.24,334.37 382.23,335.16 383.21,335.97 384.20,336.79 385.18,337.61 386.17,338.44 387.16,339.26 388.14,340.06 389.13,340.86 390.11,341.63 391.10,342.37 392.08,343.09 393.07,343.78 394.06,344.44 395.04,345.07 396.03,345.67 397.01,346.24 398.00,346.80 398.99,347.33 399.97,347.86 400.96,348.37 401.94,348.88 402.93,349.38 403.91,349.88 404.90,350.38 405.89,350.88 406.87,351.39 407.86,351.89 408.84,352.40 409.83,352.90 410.82,353.39 411.80,353.88 412.79,354.35 413.77,354.80 414.76,355.23 415.75,355.65 416.73,356.05 417.72,356.44 418.70,356.81 419.69,357.18 420.67,357.55 421.66,357.91 422.65,358.29 423.63,358.66 424.62,359.04 425.60,359.42 426.59,359.80 427.58,360.17 428.56,360.53 429.55,360.88 430.53,361.20 431.52,361.50 432.51,361.78 433.49,362.04 434.48,362.29 435.46,362.53 436.45,362.76 437.43,363.00 438.42,363.24 439.41,363.48 440.39,363.74 441.38,363.99 442.36,364.26 443.35,364.51 444.34,364.76 445.32,364.98 446.31,365.19 447.29,365.37 448.28,365.51 449.26,365.63 450.25,365.71 451.24,365.77 452.22,365.81 453.21,365.83 454.19,365.83 455.18,365.83 456.17,365.83 457.15,365.83 458.14,365.85 459.12,365.87 460.11,365.90 461.10,365.95 462.08,366.01 463.07,366.08 464.05,366.16 465.04,366.25 466.02,366.34 467.01,366.43 468.00,366.52 468.98,366.60 469.97,366.68 470.95,366.76 471.94,366.83 472.93,366.89 473.91,366.95 474.90,367.00 475.88,367.05 476.87,367.10 477.86,367.15 478.84,367.20 479.83,367.25 480.81,367.30 481.80,367.35 482.78,367.40 483.77,367.45 484.76,367.50 485.74,367.55 486.73,367.60 487.71,367.65 488.70,367.69 489.69,367.74 490.67,367.78 491.66,367.83 492.64,367.87 493.63,367.91 494.61,367.96 495.60,368.00 496.59,368.04 497.57,368.08 498.56,368.11 499.54,368.14 500.53,368.17 501.52,368.19 502.50,368.21 503.49,368.23 504.47,368.25 505.46,368.26 506.45,368.27 507.43,368.29 508.42,368.30 509.40,368.31 510.39,368.32 511.37,368.33 512.36,368.34 513.35,368.34 514.33,368.35 515.32,368.35 516.30,368.35 517.29,368.35 518.28,368.35 519.26,368.35 520.25,368.35 521.23,368.35 522.22,368.35 523.21,368.35 524.19,368.36 525.18,368.36 526.16,368.36 527.15,368.37 528.13,368.37 529.12,368.38 530.11,368.38 531.09,368.39 532.08,368.39 533.06,368.40 534.05,368.40 535.04,368.40 536.02,368.40 537.01,368.41 537.99,368.41 538.98,368.41 539.96,368.41 540.95,368.41 541.94,368.40 542.92,368.40 543.91,368.39 544.89,368.39 545.88,368.38 546.87,368.37 547.85,368.37 548.84,368.36 549.82,368.36 550.81,368.36 551.80,368.36 552.78,368.36 553.77,368.36 554.75,368.37 555.74,368.37 556.72,368.38 557.71,368.38 558.70,368.39 559.68,368.39 560.67,368.40 561.65,368.40 561.65,368.46 560.67,368.46 559.68,368.46 558.70,368.46 557.71,368.46 556.72,368.46 555.74,368.46 554.75,368.46 553.77,368.46 552.78,368.46 551.80,368.46 550.81,368.46 549.82,368.46 548.84,368.46 547.85,368.46 546.87,368.46 545.88,368.46 544.89,368.46 543.91,368.46 542.92,368.46 541.94,368.46 540.95,368.46 539.96,368.46 538.98,368.46 537.99,368.46 537.01,368.46 536.02,368.46 535.04,368.46 534.05,368.46 533.06,368.46 532.08,368.46 531.09,368.46 530.11,368.46 529.12,368.46 528.13,368.46 527.15,368.46 526.16,368.46 525.18,368.46 524.19,368.46 523.21,368.46 522.22,368.46 521.23,368.46 520.25,368.46 519.26,368.46 518.28,368.46 517.29,368.46 516.30,368.46 515.32,368.46 514.33,368.46 513.35,368.46 512.36,368.46 511.37,368.46 510.39,368.46 509.40,368.46 508.42,368.46 507.43,368.46 506.45,368.46 505.46,368.46 504.47,368.46 503.49,368.46 502.50,368.46 501.52,368.46 500.53,368.46 499.54,368.46 498.56,368.46 497.57,368.46 496.59,368.46 495.60,368.46 494.61,368.46 493.63,368.46 492.64,368.46 491.66,368.46 490.67,368.46 489.69,368.46 488.70,368.46 487.71,368.46 486.73,368.46 485.74,368.46 484.76,368.46 483.77,368.46 482.78,368.46 481.80,368.46 480.81,368.46 479.83,368.46 478.84,368.46 477.86,368.46 476.87,368.46 475.88,368.46 474.90,368.46 473.91,368.46 472.93,368.46 471.94,368.46 470.95,368.46 469.97,368.46 468.98,368.46 468.00,368.46 467.01,368.46 466.02,368.46 465.04,368.46 464.05,368.46 463.07,368.46 462.08,368.46 461.10,368.46 460.11,368.46 459.12,368.46 458.14,368.46 457.15,368.46 456.17,368.46 455.18,368.46 454.19,368.46 453.21,368.46 452.22,368.46 451.24,368.46 450.25,368.46 449.26,368.46 448.28,368.46 447.29,368.46 446.31,368.46 445.32,368.46 444.34,368.46 443.35,368.46 442.36,368.46 441.38,368.46 440.39,368.46 439.41,368.46 438.42,368.46 437.43,368.46 436.45,368.46 435.46,368.46 434.48,368.46 433.49,368.46 432.51,368.46 431.52,368.46 430.53,368.46 429.55,368.46 428.56,368.46 427.58,368.46 426.59,368.46 425.60,368.46 424.62,368.46 423.63,368.46 422.65,368.46 421.66,368.46 420.67,368.46 419.69,368.46 418.70,368.46 417.72,368.46 416.73,368.46 415.75,368.46 414.76,368.46 413.77,368.46 412.79,368.46 411.80,368.46 410.82,368.46 409.83,368.46 408.84,368.46 407.86,368.46 406.87,368.46 405.89,368.46 404.90,368.46 403.91,368.46 402.93,368.46 401.94,368.46 400.96,368.46 399.97,368.46 398.99,368.46 398.00,368.46 397.01,368.46 396.03,368.46 395.04,368.46 394.06,368.46 393.07,368.46 392.08,368.46 391.10,368.46 390.11,368.46 389.13,368.46 388.14,368.46 387.16,368.46 386.17,368.46 385.18,368.46 384.20,368.46 383.21,368.46 382.23,368.46 381.24,368.46 380.25,368.46 379.27,368.46 378.28,368.46 377.30,368.46 376.31,368.46 375.32,368.46 374.34,368.46 373.35,368.46 372.37,368.46 371.38,368.46 370.40,368.46 369.41,368.46 368.42,368.46 367.44,368.46 366.45,368.46 365.47,368.46 364.48,368.46 363.49,368.46 362.51,368.46 361.52,368.46 360.54,368.46 359.55,368.46 358.56,368.46 357.58,368.46 356.59,368.46 355.61,368.46 354.62,368.46 353.64,368.46 352.65,368.46 351.66,368.46 350.68,368.46 349.69,368.46 348.71,368.46 347.72,368.46 346.73,368.46 345.75,368.46 344.76,368.46 343.78,368.46 342.79,368.46 341.81,368.46 340.82,368.46 339.83,368.46 338.85,368.46 337.86,368.46 336.88,368.46 335.89,368.46 334.90,368.46 333.92,368.46 332.93,368.46 331.95,368.46 330.96,368.46 329.97,368.46 328.99,368.46 328.00,368.46 327.02,368.46 326.03,368.46 325.05,368.46 324.06,368.46 323.07,368.46 322.09,368.46 321.10,368.46 320.12,368.46 319.13,368.46 318.14,368.46 317.16,368.46 316.17,368.46 315.19,368.46 314.20,368.46 313.21,368.46 312.23,368.46 311.24,368.46 310.26,368.46 309.27,368.46 308.29,368.46 307.30,368.46 306.31,368.46 305.33,368.46 304.34,368.46 303.36,368.46 302.37,368.46 301.38,368.46 300.40,368.46 299.41,368.46 298.43,368.46 297.44,368.46 296.46,368.46 295.47,368.46 294.48,368.46 293.50,368.46 292.51,368.46 291.53,368.46 290.54,368.46 289.55,368.46 288.57,368.46 287.58,368.46 286.60,368.46 285.61,368.46 284.62,368.46 283.64,368.46 282.65,368.46 281.67,368.46 280.68,368.46 279.70,368.46 278.71,368.46 277.72,368.46 276.74,368.46 275.75,368.46 274.77,368.46 273.78,368.46 272.79,368.46 271.81,368.46 270.82,368.46 269.84,368.46 268.85,368.46 267.86,368.46 266.88,368.46 265.89,368.46 264.91,368.46 263.92,368.46 262.94,368.46 261.95,368.46 260.96,368.46 259.98,368.46 258.99,368.46 258.01,368.46 257.02,368.46 256.03,368.46 255.05,368.46 254.06,368.46 253.08,368.46 252.09,368.46 251.11,368.46 250.12,368.46 249.13,368.46 248.15,368.46 247.16,368.46 246.18,368.46 245.19,368.46 244.20,368.46 243.22,368.46 242.23,368.46 241.25,368.46 240.26,368.46 239.27,368.46 238.29,368.46 237.30,368.46 236.32,368.46 235.33,368.46 234.35,368.46 233.36,368.46 232.37,368.46 231.39,368.46 230.40,368.46 229.42,368.46 228.43,368.46 227.44,368.46 226.46,368.46 225.47,368.46 224.49,368.46 223.50,368.46 222.51,368.46 221.53,368.46 220.54,368.46 219.56,368.46 218.57,368.46 217.59,368.46 216.60,368.46 215.61,368.46 214.63,368.46 213.64,368.46 212.66,368.46 211.67,368.46 210.68,368.46 209.70,368.46 208.71,368.46 207.73,368.46 206.74,368.46 205.76,368.46 204.77,368.46 203.78,368.46 202.80,368.46 201.81,368.46 200.83,368.46 199.84,368.46 198.85,368.46 197.87,368.46 196.88,368.46 195.90,368.46 194.91,368.46 193.92,368.46 192.94,368.46 191.95,368.46 190.97,368.46 189.98,368.46 189.00,368.46 188.01,368.46 187.02,368.46 186.04,368.46 185.05,368.46 184.07,368.46 183.08,368.46 182.09,368.46 181.11,368.46 180.12,368.46 179.14,368.46 178.15,368.46 177.16,368.46 176.18,368.46 175.19,368.46 174.21,368.46 173.22,368.46 172.24,368.46 171.25,368.46 170.26,368.46 169.28,368.46 168.29,368.46 167.31,368.46 166.32,368.46 165.33,368.46 164.35,368.46 163.36,368.46 162.38,368.46 161.39,368.46 160.41,368.46 159.42,368.46 158.43,368.46 157.45,368.46 156.46,368.46 155.48,368.46 154.49,368.46 153.50,368.46 152.52,368.46 151.53,368.46 150.55,368.46 149.56,368.46 148.57,368.46 147.59,368.46 146.60,368.46 145.62,368.46 144.63,368.46 143.65,368.46 142.66,368.46 141.67,368.46 140.69,368.46 139.70,368.46 138.72,368.46 137.73,368.46 136.74,368.46 135.76,368.46 134.77,368.46 133.79,368.46 132.80,368.46 131.81,368.46 130.83,368.46 129.84,368.46 128.86,368.46 127.87,368.46 126.89,368.46 125.90,368.46 124.91,368.46 123.93,368.46 122.94,368.46 121.96,368.46 120.97,368.46 119.98,368.46 119.00,368.46 118.01,368.46 117.03,368.46 116.04,368.46 115.06,368.46 114.07,368.46 113.08,368.46 112.10,368.46 111.11,368.46 110.13,368.46 109.14,368.46 108.15,368.46 107.17,368.46 106.18,368.46 105.20,368.46 104.21,368.46 103.22,368.46 102.24,368.46 101.25,368.46 100.27,368.46 99.28,368.46 98.30,368.46 97.31,368.46 96.32,368.46 95.34,368.46 94.35,368.46 93.37,368.46 92.38,368.46 91.39,368.46 90.41,368.46 89.42,368.46 88.44,368.46 87.45,368.46 86.46,368.46 85.48,368.46 84.49,368.46 83.51,368.46 82.52,368.46 81.54,368.46 80.55,368.46 79.56,368.46 78.58,368.46 77.59,368.46 76.61,368.46 75.62,368.46 74.63,368.46 73.65,368.46 72.66,368.46 71.68,368.46 70.69,368.46 69.71,368.46 68.72,368.46 67.73,368.46 66.75,368.46 65.76,368.46 64.78,368.46 63.79,368.46 62.80,368.46 61.82,368.46 60.83,368.46 59.85,368.46 58.86,368.46 57.87,368.46 "
     style="stroke-width:1.07;fill:#ff0000;fill-opacity:0.5"
     clip-path="url(#cpMzIuNjg1OHw1ODYuODQzfDM4NS43MTl8NS45Nzc1OA==)"
     id="polyline4538"
     inkscape:export-xdpi="300"
     inkscape:export-ydpi="300" />
  <polyline
     points="57.87,368.46 58.86,368.46 59.85,368.46 60.83,368.46 61.82,368.46 62.80,368.46 63.79,368.46 64.78,368.46 65.76,368.46 66.75,368.46 67.73,368.46 68.72,368.46 69.71,368.46 70.69,368.46 71.68,368.46 72.66,368.46 73.65,368.46 74.63,368.46 75.62,368.46 76.61,368.46 77.59,368.46 78.58,368.46 79.56,368.46 80.55,368.46 81.54,368.46 82.52,368.46 83.51,368.46 84.49,368.46 85.48,368.46 86.46,368.46 87.45,368.46 88.44,368.46 89.42,368.46 90.41,368.46 91.39,368.46 92.38,368.46 93.37,368.46 94.35,368.46 95.34,368.46 96.32,368.46 97.31,368.46 98.30,368.46 99.28,368.46 100.27,368.46 101.25,368.46 102.24,368.46 103.22,368.46 104.21,368.46 105.20,368.46 106.18,368.46 107.17,368.46 108.15,368.46 109.14,368.46 110.13,368.46 111.11,368.46 112.10,368.46 113.08,368.46 114.07,368.46 115.06,368.46 116.04,368.46 117.03,368.46 118.01,368.46 119.00,368.46 119.98,368.46 120.97,368.46 121.96,368.46 122.94,368.46 123.93,368.46 124.91,368.46 125.90,368.46 126.89,368.46 127.87,368.46 128.86,368.46 129.84,368.46 130.83,368.46 131.81,368.46 132.80,368.46 133.79,368.46 134.77,368.46 135.76,368.46 136.74,368.46 137.73,368.46 138.72,368.46 139.70,368.46 140.69,368.46 141.67,368.46 142.66,368.46 143.65,368.46 144.63,368.46 145.62,368.46 146.60,368.46 147.59,368.46 148.57,368.46 149.56,368.46 150.55,368.46 151.53,368.46 152.52,368.46 153.50,368.46 154.49,368.46 155.48,368.46 156.46,368.46 157.45,368.46 158.43,368.46 159.42,368.46 160.41,368.46 161.39,368.46 162.38,368.46 163.36,368.46 164.35,368.46 165.33,368.46 166.32,368.46 167.31,368.46 168.29,368.46 169.28,368.46 170.26,368.46 171.25,368.46 172.24,368.46 173.22,368.46 174.21,368.46 175.19,368.46 176.18,368.46 177.16,368.46 178.15,368.46 179.14,368.46 180.12,368.46 181.11,368.46 182.09,368.46 183.08,368.46 184.07,368.46 185.05,368.46 186.04,368.46 187.02,368.46 188.01,368.46 189.00,368.46 189.98,368.46 190.97,368.46 191.95,368.46 192.94,368.46 193.92,368.46 194.91,368.46 195.90,368.45 196.88,368.45 197.87,368.44 198.85,368.44 199.84,368.42 200.83,368.40 201.81,368.38 202.80,368.34 203.78,368.30 204.77,368.23 205.76,368.15 206.74,368.04 207.73,367.90 208.71,367.73 209.70,367.53 210.68,367.30 211.67,367.03 212.66,366.72 213.64,366.39 214.63,366.01 215.61,365.60 216.60,365.16 217.59,364.67 218.57,364.13 219.56,363.55 220.54,362.92 221.53,362.23 222.51,361.50 223.50,360.72 224.49,359.88 225.47,359.00 226.46,358.07 227.44,357.09 228.43,356.06 229.42,354.99 230.40,353.87 231.39,352.71 232.37,351.49 233.36,350.21 234.35,348.86 235.33,347.44 236.32,345.94 237.30,344.36 238.29,342.71 239.27,341.00 240.26,339.25 241.25,337.48 242.23,335.72 243.22,333.99 244.20,332.34 245.19,330.77 246.18,329.32 247.16,327.98 248.15,326.77 249.13,325.68 250.12,324.68 251.11,323.76 252.09,322.90 253.08,322.06 254.06,321.23 255.05,320.39 256.03,319.52 257.02,318.62 258.01,317.67 258.99,316.69 259.98,315.67 260.96,314.65 261.95,313.64 262.94,312.68 263.92,311.81 264.91,311.07 265.89,310.46 266.88,309.99 267.86,309.66 268.85,309.44 269.84,309.30 270.82,309.21 271.81,309.16 272.79,309.13 273.78,309.12 274.77,309.15 275.75,309.22 276.74,309.36 277.72,309.58 278.71,309.88 279.70,310.27 280.68,310.73 281.67,311.26 282.65,311.83 283.64,312.43 284.62,313.06 285.61,313.73 286.60,314.44 287.58,315.20 288.57,316.03 289.55,316.92 290.54,317.86 291.53,318.84 292.51,319.85 293.50,320.85 294.48,321.82 295.47,322.75 296.46,323.64 297.44,324.49 298.43,325.32 299.41,326.15 300.40,326.97 301.38,327.81 302.37,328.67 303.36,329.54 304.34,330.43 305.33,331.33 306.31,332.23 307.30,333.11 308.29,333.98 309.27,334.83 310.26,335.66 311.24,336.50 312.23,337.34 313.21,338.22 314.20,339.14 315.19,340.11 316.17,341.15 317.16,342.25 318.14,343.39 319.13,344.56 320.12,345.72 321.10,346.86 322.09,347.94 323.07,348.95 324.06,349.90 325.05,350.77 326.03,351.59 327.02,352.37 328.00,353.10 328.99,353.81 329.97,354.49 330.96,355.14 331.95,355.75 332.93,356.33 333.92,356.87 334.90,357.38 335.89,357.84 336.88,358.28 337.86,358.67 338.85,359.04 339.83,359.39 340.82,359.72 341.81,360.05 342.79,360.39 343.78,360.74 344.76,361.11 345.75,361.51 346.73,361.92 347.72,362.34 348.71,362.76 349.69,363.17 350.68,363.56 351.66,363.92 352.65,364.24 353.64,364.52 354.62,364.77 355.61,364.98 356.59,365.16 357.58,365.33 358.56,365.48 359.55,365.63 360.54,365.78 361.52,365.93 362.51,366.08 363.49,366.23 364.48,366.36 365.47,366.49 366.45,366.60 367.44,366.70 368.42,366.79 369.41,366.87 370.40,366.95 371.38,367.03 372.37,367.10 373.35,367.17 374.34,367.23 375.32,367.29 376.31,367.35 377.30,367.40 378.28,367.45 379.27,367.51 380.25,367.57 381.24,367.64 382.23,367.71 383.21,367.79 384.20,367.87 385.18,367.94 386.17,368.02 387.16,368.09 388.14,368.15 389.13,368.20 390.11,368.24 391.10,368.27 392.08,368.29 393.07,368.31 394.06,368.32 395.04,368.32 396.03,368.32 397.01,368.32 398.00,368.32 398.99,368.32 399.97,368.31 400.96,368.31 401.94,368.31 402.93,368.31 403.91,368.31 404.90,368.31 405.89,368.32 406.87,368.32 407.86,368.33 408.84,368.33 409.83,368.34 410.82,368.35 411.80,368.36 412.79,368.37 413.77,368.38 414.76,368.38 415.75,368.39 416.73,368.40 417.72,368.41 418.70,368.41 419.69,368.42 420.67,368.43 421.66,368.44 422.65,368.44 423.63,368.45 424.62,368.45 425.60,368.45 426.59,368.46 427.58,368.46 428.56,368.46 429.55,368.46 430.53,368.46 431.52,368.46 432.51,368.46 433.49,368.46 434.48,368.46 435.46,368.46 436.45,368.46 437.43,368.46 438.42,368.46 439.41,368.46 440.39,368.46 441.38,368.46 442.36,368.46 443.35,368.46 444.34,368.46 445.32,368.46 446.31,368.46 447.29,368.46 448.28,368.46 449.26,368.46 450.25,368.46 451.24,368.46 452.22,368.46 453.21,368.46 454.19,368.46 455.18,368.46 456.17,368.46 457.15,368.46 458.14,368.46 459.12,368.46 460.11,368.46 461.10,368.46 462.08,368.46 463.07,368.46 464.05,368.46 465.04,368.46 466.02,368.46 467.01,368.46 468.00,368.46 468.98,368.46 469.97,368.46 470.95,368.46 471.94,368.46 472.93,368.46 473.91,368.46 474.90,368.46 475.88,368.46 476.87,368.46 477.86,368.46 478.84,368.46 479.83,368.46 480.81,368.46 481.80,368.46 482.78,368.46 483.77,368.46 484.76,368.46 485.74,368.46 486.73,368.46 487.71,368.46 488.70,368.46 489.69,368.46 490.67,368.46 491.66,368.46 492.64,368.46 493.63,368.46 494.61,368.46 495.60,368.46 496.59,368.46 497.57,368.46 498.56,368.46 499.54,368.46 500.53,368.46 501.52,368.46 502.50,368.46 503.49,368.46 504.47,368.46 505.46,368.46 506.45,368.46 507.43,368.46 508.42,368.46 509.40,368.46 510.39,368.46 511.37,368.46 512.36,368.46 513.35,368.46 514.33,368.46 515.32,368.46 516.30,368.46 517.29,368.46 518.28,368.46 519.26,368.46 520.25,368.46 521.23,368.46 522.22,368.46 523.21,368.46 524.19,368.46 525.18,368.46 526.16,368.46 527.15,368.46 528.13,368.46 529.12,368.46 530.11,368.46 531.09,368.46 532.08,368.46 533.06,368.46 534.05,368.46 535.04,368.46 536.02,368.46 537.01,368.46 537.99,368.46 538.98,368.46 539.96,368.46 540.95,368.46 541.94,368.46 542.92,368.46 543.91,368.46 544.89,368.46 545.88,368.46 546.87,368.46 547.85,368.46 548.84,368.46 549.82,368.46 550.81,368.46 551.80,368.46 552.78,368.46 553.77,368.46 554.75,368.46 555.74,368.46 556.72,368.46 557.71,368.46 558.70,368.46 559.68,368.46 560.67,368.46 561.65,368.46 561.65,368.46 560.67,368.46 559.68,368.46 558.70,368.46 557.71,368.46 556.72,368.46 555.74,368.46 554.75,368.46 553.77,368.46 552.78,368.46 551.80,368.46 550.81,368.46 549.82,368.46 548.84,368.46 547.85,368.46 546.87,368.46 545.88,368.46 544.89,368.46 543.91,368.46 542.92,368.46 541.94,368.46 540.95,368.46 539.96,368.46 538.98,368.46 537.99,368.46 537.01,368.46 536.02,368.46 535.04,368.46 534.05,368.46 533.06,368.46 532.08,368.46 531.09,368.46 530.11,368.46 529.12,368.46 528.13,368.46 527.15,368.46 526.16,368.46 525.18,368.46 524.19,368.46 523.21,368.46 522.22,368.46 521.23,368.46 520.25,368.46 519.26,368.46 518.28,368.46 517.29,368.46 516.30,368.46 515.32,368.46 514.33,368.46 513.35,368.46 512.36,368.46 511.37,368.46 510.39,368.46 509.40,368.46 508.42,368.46 507.43,368.46 506.45,368.46 505.46,368.46 504.47,368.46 503.49,368.46 502.50,368.46 501.52,368.46 500.53,368.46 499.54,368.46 498.56,368.46 497.57,368.46 496.59,368.46 495.60,368.46 494.61,368.46 493.63,368.46 492.64,368.46 491.66,368.46 490.67,368.46 489.69,368.46 488.70,368.46 487.71,368.46 486.73,368.46 485.74,368.46 484.76,368.46 483.77,368.46 482.78,368.46 481.80,368.46 480.81,368.46 479.83,368.46 478.84,368.46 477.86,368.46 476.87,368.46 475.88,368.46 474.90,368.46 473.91,368.46 472.93,368.46 471.94,368.46 470.95,368.46 469.97,368.46 468.98,368.46 468.00,368.46 467.01,368.46 466.02,368.46 465.04,368.46 464.05,368.46 463.07,368.46 462.08,368.46 461.10,368.46 460.11,368.46 459.12,368.46 458.14,368.46 457.15,368.46 456.17,368.46 455.18,368.46 454.19,368.46 453.21,368.46 452.22,368.46 451.24,368.46 450.25,368.46 449.26,368.46 448.28,368.46 447.29,368.46 446.31,368.46 445.32,368.46 444.34,368.46 443.35,368.46 442.36,368.46 441.38,368.46 440.39,368.46 439.41,368.46 438.42,368.46 437.43,368.46 436.45,368.46 435.46,368.46 434.48,368.46 433.49,368.46 432.51,368.46 431.52,368.46 430.53,368.46 429.55,368.46 428.56,368.46 427.58,368.46 426.59,368.46 425.60,368.46 424.62,368.46 423.63,368.46 422.65,368.46 421.66,368.46 420.67,368.46 419.69,368.46 418.70,368.46 417.72,368.46 416.73,368.46 415.75,368.46 414.76,368.46 413.77,368.46 412.79,368.46 411.80,368.46 410.82,368.46 409.83,368.46 408.84,368.46 407.86,368.46 406.87,368.46 405.89,368.46 404.90,368.46 403.91,368.46 402.93,368.46 401.94,368.46 400.96,368.46 399.97,368.46 398.99,368.46 398.00,368.46 397.01,368.46 396.03,368.46 395.04,368.46 394.06,368.46 393.07,368.46 392.08,368.46 391.10,368.46 390.11,368.46 389.13,368.46 388.14,368.46 387.16,368.46 386.17,368.46 385.18,368.46 384.20,368.46 383.21,368.46 382.23,368.46 381.24,368.46 380.25,368.46 379.27,368.46 378.28,368.46 377.30,368.46 376.31,368.46 375.32,368.46 374.34,368.46 373.35,368.46 372.37,368.46 371.38,368.46 370.40,368.46 369.41,368.46 368.42,368.46 367.44,368.46 366.45,368.46 365.47,368.46 364.48,368.46 363.49,368.46 362.51,368.46 361.52,368.46 360.54,368.46 359.55,368.46 358.56,368.46 357.58,368.46 356.59,368.46 355.61,368.46 354.62,368.46 353.64,368.46 352.65,368.46 351.66,368.46 350.68,368.46 349.69,368.46 348.71,368.46 347.72,368.46 346.73,368.46 345.75,368.46 344.76,368.46 343.78,368.46 342.79,368.46 341.81,368.46 340.82,368.46 339.83,368.46 338.85,368.46 337.86,368.46 336.88,368.46 335.89,368.46 334.90,368.46 333.92,368.46 332.93,368.46 331.95,368.46 330.96,368.46 329.97,368.46 328.99,368.46 328.00,368.46 327.02,368.46 326.03,368.46 325.05,368.46 324.06,368.46 323.07,368.46 322.09,368.46 321.10,368.46 320.12,368.46 319.13,368.46 318.14,368.46 317.16,368.46 316.17,368.46 315.19,368.46 314.20,368.46 313.21,368.46 312.23,368.46 311.24,368.46 310.26,368.46 309.27,368.46 308.29,368.46 307.30,368.46 306.31,368.46 305.33,368.46 304.34,368.46 303.36,368.46 302.37,368.46 301.38,368.46 300.40,368.46 299.41,368.46 298.43,368.46 297.44,368.46 296.46,368.46 295.47,368.46 294.48,368.46 293.50,368.46 292.51,368.46 291.53,368.46 290.54,368.46 289.55,368.46 288.57,368.46 287.58,368.46 286.60,368.46 285.61,368.46 284.62,368.46 283.64,368.46 282.65,368.46 281.67,368.46 280.68,368.46 279.70,368.46 278.71,368.46 277.72,368.46 276.74,368.46 275.75,368.46 274.77,368.46 273.78,368.46 272.79,368.46 271.81,368.46 270.82,368.46 269.84,368.46 268.85,368.46 267.86,368.46 266.88,368.46 265.89,368.46 264.91,368.46 263.92,368.46 262.94,368.46 261.95,368.46 260.96,368.46 259.98,368.46 258.99,368.46 258.01,368.46 257.02,368.46 256.03,368.46 255.05,368.46 254.06,368.46 253.08,368.46 252.09,368.46 251.11,368.46 250.12,368.46 249.13,368.46 248.15,368.46 247.16,368.46 246.18,368.46 245.19,368.46 244.20,368.46 243.22,368.46 242.23,368.46 241.25,368.46 240.26,368.46 239.27,368.46 238.29,368.46 237.30,368.46 236.32,368.46 235.33,368.46 234.35,368.46 233.36,368.46 232.37,368.46 231.39,368.46 230.40,368.46 229.42,368.46 228.43,368.46 227.44,368.46 226.46,368.46 225.47,368.46 224.49,368.46 223.50,368.46 222.51,368.46 221.53,368.46 220.54,368.46 219.56,368.46 218.57,368.46 217.59,368.46 216.60,368.46 215.61,368.46 214.63,368.46 213.64,368.46 212.66,368.46 211.67,368.46 210.68,368.46 209.70,368.46 208.71,368.46 207.73,368.46 206.74,368.46 205.76,368.46 204.77,368.46 203.78,368.46 202.80,368.46 201.81,368.46 200.83,368.46 199.84,368.46 198.85,368.46 197.87,368.46 196.88,368.46 195.90,368.46 194.91,368.46 193.92,368.46 192.94,368.46 191.95,368.46 190.97,368.46 189.98,368.46 189.00,368.46 188.01,368.46 187.02,368.46 186.04,368.46 185.05,368.46 184.07,368.46 183.08,368.46 182.09,368.46 181.11,368.46 180.12,368.46 179.14,368.46 178.15,368.46 177.16,368.46 176.18,368.46 175.19,368.46 174.21,368.46 173.22,368.46 172.24,368.46 171.25,368.46 170.26,368.46 169.28,368.46 168.29,368.46 167.31,368.46 166.32,368.46 165.33,368.46 164.35,368.46 163.36,368.46 162.38,368.46 161.39,368.46 160.41,368.46 159.42,368.46 158.43,368.46 157.45,368.46 156.46,368.46 155.48,368.46 154.49,368.46 153.50,368.46 152.52,368.46 151.53,368.46 150.55,368.46 149.56,368.46 148.57,368.46 147.59,368.46 146.60,368.46 145.62,368.46 144.63,368.46 143.65,368.46 142.66,368.46 141.67,368.46 140.69,368.46 139.70,368.46 138.72,368.46 137.73,368.46 136.74,368.46 135.76,368.46 134.77,368.46 133.79,368.46 132.80,368.46 131.81,368.46 130.83,368.46 129.84,368.46 128.86,368.46 127.87,368.46 126.89,368.46 125.90,368.46 124.91,368.46 123.93,368.46 122.94,368.46 121.96,368.46 120.97,368.46 119.98,368.46 119.00,368.46 118.01,368.46 117.03,368.46 116.04,368.46 115.06,368.46 114.07,368.46 113.08,368.46 112.10,368.46 111.11,368.46 110.13,368.46 109.14,368.46 108.15,368.46 107.17,368.46 106.18,368.46 105.20,368.46 104.21,368.46 103.22,368.46 102.24,368.46 101.25,368.46 100.27,368.46 99.28,368.46 98.30,368.46 97.31,368.46 96.32,368.46 95.34,368.46 94.35,368.46 93.37,368.46 92.38,368.46 91.39,368.46 90.41,368.46 89.42,368.46 88.44,368.46 87.45,368.46 86.46,368.46 85.48,368.46 84.49,368.46 83.51,368.46 82.52,368.46 81.54,368.46 80.55,368.46 79.56,368.46 78.58,368.46 77.59,368.46 76.61,368.46 75.62,368.46 74.63,368.46 73.65,368.46 72.66,368.46 71.68,368.46 70.69,368.46 69.71,368.46 68.72,368.46 67.73,368.46 66.75,368.46 65.76,368.46 64.78,368.46 63.79,368.46 62.80,368.46 61.82,368.46 60.83,368.46 59.85,368.46 58.86,368.46 57.87,368.46 "
     style="stroke-width:1.07;fill:#00ff00;fill-opacity:0.5"
     clip-path="url(#cpMzIuNjg1OHw1ODYuODQzfDM4NS43MTl8NS45Nzc1OA==)"
     id="polyline4540"
     inkscape:export-xdpi="300"
     inkscape:export-ydpi="300" />
  <rect
     x="32.69"
     y="5.98"
     width="554.16"
     height="379.74"
     style="stroke-width: 1.07; stroke: #7F7F7F;"
     clip-path="url(#cpMzIuNjg1OHw1ODYuODQzfDM4NS43MTl8NS45Nzc1OA==)"
     id="rect4542"
     inkscape:export-xdpi="300"
     inkscape:export-ydpi="300" />
  <defs
     id="defs4547">
    <clipPath
       id="cpMHw2NzcuMjV8NDIwfDA=">
      <rect
         x="0.00"
         y="0.00"
         width="677.25"
         height="420.00"
         id="rect4544" />
    </clipPath>
  </defs>
  <g
     clip-path="url(#cpMHw2NzcuMjV8NDIwfDA=)"
     id="g4555"
     inkscape:export-xdpi="300"
     inkscape:export-ydpi="300"
     transform="matrix(2.3213173,0,0,2.3213173,-34.869712,-364.9364)">
    <text
       x="21.74"
       y="279.35999"
       style="font-size:9.60000038px;font-family:Arial"
       textLength="5.5599999"
       lengthAdjust="spacingAndGlyphs"
       id="text4553">3</text>
  </g>
  <g
     clip-path="url(#cpMHw2NzcuMjV8NDIwfDA=)"
     id="g4559"
     inkscape:export-xdpi="300"
     inkscape:export-ydpi="300"
     transform="matrix(2.322868,0,0,2.322868,-35.467125,-242.74696)">
    <text
       x="21.74"
       y="186.67"
       style="font-size:9.60000038px;font-family:Arial"
       textLength="5.5599999"
       lengthAdjust="spacingAndGlyphs"
       id="text4557">6</text>
  </g>
  <g
     clip-path="url(#cpMHw2NzcuMjV8NDIwfDA=)"
     id="g4563"
     inkscape:export-xdpi="300"
     inkscape:export-ydpi="300"
     transform="matrix(2.322868,0,0,2.322868,-34.276504,-121.38579)">
    <text
       x="21.74"
       y="93.989998"
       style="font-size:9.60000038px;font-family:Arial"
       textLength="5.5599999"
       lengthAdjust="spacingAndGlyphs"
       id="text4561">9</text>
  </g>
  <polyline
     points="29.70,368.46 32.69,368.46 "
     style="stroke-width: 1.07; stroke-linecap: butt;"
     clip-path="url(#cpMHw2NzcuMjV8NDIwfDA=)"
     id="polyline4565"
     inkscape:export-xdpi="300"
     inkscape:export-ydpi="300" />
  <polyline
     points="29.70,275.78 32.69,275.78 "
     style="stroke-width: 1.07; stroke-linecap: butt;"
     clip-path="url(#cpMHw2NzcuMjV8NDIwfDA=)"
     id="polyline4567"
     inkscape:export-xdpi="300"
     inkscape:export-ydpi="300" />
  <polyline
     points="29.70,183.10 32.69,183.10 "
     style="stroke-width: 1.07; stroke-linecap: butt;"
     clip-path="url(#cpMHw2NzcuMjV8NDIwfDA=)"
     id="polyline4569"
     inkscape:export-xdpi="300"
     inkscape:export-ydpi="300" />
  <polyline
     points="29.70,90.41 32.69,90.41 "
     style="stroke-width: 1.07; stroke-linecap: butt;"
     clip-path="url(#cpMHw2NzcuMjV8NDIwfDA=)"
     id="polyline4571"
     inkscape:export-xdpi="300"
     inkscape:export-ydpi="300" />
  <polyline
     points="45.70,388.71 45.70,385.72 "
     style="stroke-width: 1.07; stroke-linecap: butt;"
     clip-path="url(#cpMHw2NzcuMjV8NDIwfDA=)"
     id="polyline4573"
     inkscape:export-xdpi="300"
     inkscape:export-ydpi="300" />
  <polyline
     points="189.77,388.71 189.77,385.72 "
     style="stroke-width: 1.07; stroke-linecap: butt;"
     clip-path="url(#cpMHw2NzcuMjV8NDIwfDA=)"
     id="polyline4575"
     inkscape:export-xdpi="300"
     inkscape:export-ydpi="300" />
  <polyline
     points="333.83,388.71 333.83,385.72 "
     style="stroke-width: 1.07; stroke-linecap: butt;"
     clip-path="url(#cpMHw2NzcuMjV8NDIwfDA=)"
     id="polyline4577"
     inkscape:export-xdpi="300"
     inkscape:export-ydpi="300" />
  <polyline
     points="477.90,388.71 477.90,385.72 "
     style="stroke-width: 1.07; stroke-linecap: butt;"
     clip-path="url(#cpMHw2NzcuMjV8NDIwfDA=)"
     id="polyline4579"
     inkscape:export-xdpi="300"
     inkscape:export-ydpi="300" />
  <g
     clip-path="url(#cpMHw2NzcuMjV8NDIwfDA=)"
     id="g4583"
     inkscape:export-xdpi="300"
     inkscape:export-ydpi="300"
     transform="matrix(2.322868,0,0,2.322868,-60.356204,-517.90953)">
    <text
       x="42.919998"
       y="398.26001"
       style="font-size:9.60000038px;font-family:Arial"
       textLength="5.5599999"
       lengthAdjust="spacingAndGlyphs"
       id="text4581">0</text>
  </g>
  <g
     clip-path="url(#cpMHw2NzcuMjV8NDIwfDA=)"
     id="g4587"
     inkscape:export-xdpi="300"
     inkscape:export-ydpi="300"
     transform="matrix(2.3623189,0,0,2.3623189,-259.25199,-531.44601)">
    <text
       x="186.99001"
       y="398.26001"
       style="font-size:9.60000038px;font-family:Arial"
       textLength="5.5599999"
       lengthAdjust="spacingAndGlyphs"
       id="text4585">1</text>
  </g>
  <g
     clip-path="url(#cpMHw2NzcuMjV8NDIwfDA=)"
     id="g4591"
     inkscape:export-xdpi="300"
     inkscape:export-ydpi="300"
     transform="matrix(2.3698162,0,0,2.3698162,-453.89078,-536.09128)">
    <text
       x="331.04999"
       y="398.26001"
       style="font-size:9.60000038px;font-family:Arial"
       textLength="5.5599999"
       lengthAdjust="spacingAndGlyphs"
       id="text4589"
       transform="translate(-1.821469,0.60715634)">2</text>
  </g>
  <g
     clip-path="url(#cpMHw2NzcuMjV8NDIwfDA=)"
     id="g4595"
     inkscape:export-xdpi="300"
     inkscape:export-ydpi="300"
     transform="matrix(2.3213173,0,0,2.3213173,-629.05786,-517.75458)">
    <text
       x="475.12"
       y="398.26001"
       style="font-size:9.60000038px;font-family:Arial"
       textLength="5.5599999"
       lengthAdjust="spacingAndGlyphs"
       id="text4593">3</text>
  </g>
  <g
     clip-path="url(#cpMHw2NzcuMjV8NDIwfDA=)"
     id="g4599"
     transform="matrix(2.3151393,0,0,2.3151393,-428.87915,-505.61317)"
     inkscape:export-xdpi="300"
     inkscape:export-ydpi="300">
    <text
       x="231.71001"
       y="411.63"
       style="font-size:12px;font-family:Arial"
       textLength="156.10001"
       lengthAdjust="spacingAndGlyphs"
       id="text4597">normalized age of duplication</text>
  </g>
  <g
     clip-path="url(#cpMHw2NzcuMjV8NDIwfDA=)"
     id="g4603"
     transform="matrix(2.4456997,0,0,2.4456997,-35.01723,-280.61301)"
     inkscape:export-xdpi="300"
     inkscape:export-ydpi="300">
    <text
       transform="rotate(-90,128.415,111.455)"
       style="font-size:12px;font-family:Arial"
       textLength="88.040001"
       lengthAdjust="spacingAndGlyphs"
       id="text4601">posterior density</text>
  </g>
  <rect
     x="595.35"
     y="141.94"
     width="67.42"
     height="107.82"
     style="stroke-width: 1.07; stroke: none; fill: #FFFFFF;"
     clip-path="url(#cpMHw2NzcuMjV8NDIwfDA=)"
     id="rect4605"
     inkscape:export-xdpi="300"
     inkscape:export-ydpi="300" />
  <rect
     x="599.60"
     y="159.11"
     width="17.28"
     height="17.28"
     style="stroke-width: 1.07; stroke: #CCCCCC; fill: #FFFFFF;"
     clip-path="url(#cpMHw2NzcuMjV8NDIwfDA=)"
     id="rect4611"
     inkscape:export-xdpi="300"
     inkscape:export-ydpi="300" />
  <rect
     x="600.31"
     y="159.81"
     width="15.86"
     height="15.86"
     style="stroke-width:1.07;stroke-linejoin:miter;fill:#d38d5f;fill-opacity:0.5"
     clip-path="url(#cpMHw2NzcuMjV8NDIwfDA=)"
     id="rect4613"
     inkscape:export-xdpi="300"
     inkscape:export-ydpi="300" />
  <rect
     x="599.60"
     y="176.39"
     width="17.28"
     height="17.28"
     style="stroke-width: 1.07; stroke: #CCCCCC; fill: #FFFFFF;"
     clip-path="url(#cpMHw2NzcuMjV8NDIwfDA=)"
     id="rect4615"
     inkscape:export-xdpi="300"
     inkscape:export-ydpi="300" />
  <rect
     x="600.31"
     y="177.09"
     width="15.86"
     height="15.86"
     style="stroke-width:1.07;stroke-linejoin:miter;fill:#ffff00;fill-opacity:0.5"
     clip-path="url(#cpMHw2NzcuMjV8NDIwfDA=)"
     id="rect4617"
     inkscape:export-xdpi="300"
     inkscape:export-ydpi="300" />
  <rect
     x="599.60"
     y="193.67"
     width="17.28"
     height="17.28"
     style="stroke-width: 1.07; stroke: #CCCCCC; fill: #FFFFFF;"
     clip-path="url(#cpMHw2NzcuMjV8NDIwfDA=)"
     id="rect4619"
     inkscape:export-xdpi="300"
     inkscape:export-ydpi="300" />
  <rect
     x="600.31"
     y="194.37"
     width="15.86"
     height="15.86"
     style="stroke-width:1.07;stroke-linejoin:miter;fill:#ff00ff;fill-opacity:0.5"
     clip-path="url(#cpMHw2NzcuMjV8NDIwfDA=)"
     id="rect4621"
     inkscape:export-xdpi="300"
     inkscape:export-ydpi="300" />
  <rect
     x="599.60"
     y="210.95"
     width="17.28"
     height="17.28"
     style="stroke-width: 1.07; stroke: #CCCCCC; fill: #FFFFFF;"
     clip-path="url(#cpMHw2NzcuMjV8NDIwfDA=)"
     id="rect4623"
     inkscape:export-xdpi="300"
     inkscape:export-ydpi="300" />
  <rect
     x="600.31"
     y="211.65"
     width="15.86"
     height="15.86"
     style="stroke-width:1.07;stroke-linejoin:miter;fill:#ff2a2a;fill-opacity:0.5"
     clip-path="url(#cpMHw2NzcuMjV8NDIwfDA=)"
     id="rect4625"
     inkscape:export-xdpi="300"
     inkscape:export-ydpi="300" />
  <rect
     x="599.60"
     y="228.23"
     width="17.28"
     height="17.28"
     style="stroke-width: 1.07; stroke: #CCCCCC; fill: #FFFFFF;"
     clip-path="url(#cpMHw2NzcuMjV8NDIwfDA=)"
     id="rect4627"
     inkscape:export-xdpi="300"
     inkscape:export-ydpi="300" />
  <rect
     x="600.31"
     y="228.93"
     width="15.86"
     height="15.86"
     style="stroke-width:1.07;stroke-linejoin:miter;fill:#00ff00;fill-opacity:0.5"
     clip-path="url(#cpMHw2NzcuMjV8NDIwfDA=)"
     id="rect4629"
     inkscape:export-xdpi="300"
     inkscape:export-ydpi="300" />
  <g
     clip-path="url(#cpMHw2NzcuMjV8NDIwfDA=)"
     id="g4633"
     transform="matrix(1.4670727,0,0,1.4670727,-289.12983,-80.96253)"
     style="fill:#e9c6af"
     inkscape:export-xdpi="300"
     inkscape:export-ydpi="300">
    <text
       x="619.03998"
       y="171.32001"
       style="font-size:9.60000038px;font-family:Arial;fill:#e9c6af"
       textLength="28.92"
       lengthAdjust="spacingAndGlyphs"
       id="text4631">Agoab</text>
  </g>
  <g
     clip-path="url(#cpMHw2NzcuMjV8NDIwfDA=)"
     id="g4637"
     transform="matrix(1.404245,0,0,1.404245,-250.23791,-77.057315)"
     style="fill:#ffcc00"
     inkscape:export-xdpi="300"
     inkscape:export-ydpi="300">
    <text
       x="619.03998"
       y="188.60001"
       style="font-size:9.60000038px;font-family:Arial;fill:#ffcc00"
       textLength="39.48"
       lengthAdjust="spacingAndGlyphs"
       id="text4635">Agoabcd</text>
  </g>
  <g
     clip-path="url(#cpMHw2NzcuMjV8NDIwfDA=)"
     id="g4641"
     transform="matrix(1.4536286,0,0,1.4536286,-280.80762,-94.309538)"
     style="fill:#ff00ff"
     inkscape:export-xdpi="300"
     inkscape:export-ydpi="300">
    <text
       x="619.03998"
       y="205.88"
       style="font-size:9.60000038px;font-family:Arial;fill:#ff00ff"
       textLength="28.35"
       lengthAdjust="spacingAndGlyphs"
       id="text4639">Agocd</text>
  </g>
  <g
     clip-path="url(#cpMHw2NzcuMjV8NDIwfDA=)"
     id="g4645"
     transform="matrix(1.5485417,0,0,1.5485417,-339.56122,-124.12813)"
     style="fill:#ff5555"
     inkscape:export-xdpi="300"
     inkscape:export-ydpi="300">
    <text
       x="619.03998"
       y="223.16"
       style="font-size:9.60000038px;font-family:Arial;fill:#ff5555"
       textLength="23.35"
       lengthAdjust="spacingAndGlyphs"
       id="text4643">Agoe</text>
  </g>
  <g
     clip-path="url(#cpMHw2NzcuMjV8NDIwfDA=)"
     id="g4649"
     transform="matrix(1.5218444,0,0,1.5218444,-323.03493,-126.52657)"
     style="fill:#00ff00"
     inkscape:export-xdpi="300"
     inkscape:export-ydpi="300">
    <text
       x="619.03998"
       y="240.44"
       style="font-size:9.60000038px;font-family:Arial;fill:#00ff00"
       textLength="20.57"
       lengthAdjust="spacingAndGlyphs"
       id="text4647">Agof</text>
  </g>
  <path
     style="fill:#d45500;stroke:#ee0000;stroke-width:2.51338583;stroke-linecap:butt;stroke-linejoin:miter;stroke-miterlimit:10;stroke-opacity:1;stroke-dasharray:7.54015748, 2.51338582999999980;stroke-dashoffset:0"
     d="M 191.19403,369.85075 C 190.41045,4.7014925 189.77,5.98 189.77,5.98"
     id="path4659"
     inkscape:connector-curvature="0"
     inkscape:export-xdpi="300"
     inkscape:export-ydpi="300" />
</svg>
